<?xml version="1.0" encoding="UTF-8" standalone="no"?>
<!DOCTYPE svg PUBLIC "-//W3C//DTD SVG 1.1//EN" "http://www.w3.org/Graphics/SVG/1.1/DTD/svg11.dtd">
<!-- Generated by Microsoft Visio, SVG Export Oct04JE10-36.svg Page-1 -->
<svg xmlns="http://www.w3.org/2000/svg" xmlns:xlink="http://www.w3.org/1999/xlink" xmlns:ev="http://www.w3.org/2001/xml-events"
		xmlns:v="http://schemas.microsoft.com/visio/2003/SVGExtensions/" width="11.6929in" height="8.26772in"
		viewBox="0 0 841.89 595.276" xml:space="preserve" color-interpolation-filters="sRGB" class="st9">
	<v:documentProperties v:langID="1033" v:metric="true" v:viewMarkup="false">
		<v:userDefs>
			<v:ud v:nameU="msvSubprocessMaster" v:prompt="" v:val="VT4(Rectangle)"/>
			<v:ud v:nameU="msvNoAutoConnect" v:val="VT0(1):26"/>
		</v:userDefs>
	</v:documentProperties>

	<style type="text/css">
	<![CDATA[
		.st1 {fill:none;stroke:none;stroke-linecap:round;stroke-linejoin:round;stroke-width:4.5}
		.st2 {fill:#bdedff;font-family:Arial Rounded MT Bold;font-size:6.66666em}
		.st3 {fill:none;stroke:#000000;stroke-linecap:round;stroke-linejoin:round;stroke-width:4.5}
		.st4 {marker-end:url(#mrkr10-15);stroke:#000000;stroke-linecap:round;stroke-linejoin:round;stroke-width:4.5}
		.st5 {fill:#000000;fill-opacity:1;stroke:#000000;stroke-opacity:1;stroke-width:0.64102564102564}
		.st6 {marker-start:url(#mrkr13-21);stroke:#000000;stroke-linecap:round;stroke-linejoin:round;stroke-width:4.5}
		.st7 {fill:none;stroke:none;stroke-width:4.5}
		.st8 {fill:#000000;font-family:Calibri;font-size:3em;font-style:italic;font-weight:bold}
		.st9 {fill:none;fill-rule:evenodd;font-size:12px;overflow:visible;stroke-linecap:square;stroke-miterlimit:3}
	]]>
	</style>

	<defs id="Markers">
		<g id="lend10">
			<path
					d="M 0 0.75 C -0.414214 0.75 -0.75 0.414214 -0.75 0 -0.75 -0.414214 -0.414214 -0.75 0 -0.75 0.414214 -0.75 0.75 -0.414214 0.75 0 0.75 0.414214 0.414214 0.75 0 0.75 Z "
					style="stroke:none"/>
		</g>
		<marker id="mrkr10-15" class="st5" v:arrowType="10" v:arrowSize="2" v:setback="1.17" refX="-1.17" orient="auto"
				markerUnits="strokeWidth" overflow="visible">
			<use xlink:href="#lend10" transform="scale(-1.56,-1.56) "/>
		</marker>
		<g id="lend13">
			<path d="M 3 1 L 0 0 L 3 -1 L 3 1 " style="stroke:none"/>
		</g>
		<marker id="mrkr13-21" class="st5" v:arrowType="13" v:arrowSize="2" v:setback="4.6" refX="4.6" orient="auto"
				markerUnits="strokeWidth" overflow="visible">
			<use xlink:href="#lend13" transform="scale(1.56) "/>
		</marker>
	</defs>
	<g v:mID="0" v:index="1" v:groupContext="foregroundPage">
		<v:userDefs>
			<v:ud v:nameU="msvThemeOrder" v:val="VT0(0):26"/>
		</v:userDefs>
		<title>Page-1</title>
		<v:pageProperties v:drawingScale="0.0393701" v:pageScale="0.0393701" v:drawingUnits="24" v:shadowOffsetX="8.50394"
				v:shadowOffsetY="-8.50394"/>
		<v:layer v:name="Connector" v:index="0"/>
		<g id="shape1-1" v:mID="1" v:groupContext="shape" transform="translate(85.0394,-252.465)">
			<title>Sheet.1</title>
			<desc>ExamSIDE.com</desc>
			<v:textBlock v:margins="rect(4,4,4,4)" v:tabSpace="42.5197"/>
			<v:textRect cx="333.231" cy="551.429" width="666.47" height="87.6924"/>
			<rect x="0" y="507.583" width="666.462" height="87.6924" class="st1"/>
			<text x="35.22" y="575.43" class="st2" v:langID="16393"><v:paragraph v:horizAlign="1"/><v:tabList/>ExamSIDE.com</text>		</g>
		<g id="shape2-4" v:mID="2" v:groupContext="shape" transform="translate(226.772,-155.906)">
			<title>Circle</title>
			<v:userDefs>
				<v:ud v:nameU="visVersion" v:val="VT0(15):26"/>
			</v:userDefs>
			<path d="M0 446.46 A148.819 148.819 0 1 1 297.64 446.46 A148.819 148.819 0 0 1 0 446.46 Z" class="st3"/>
		</g>
		<g id="shape3-6" v:mID="3" v:groupContext="shape" transform="translate(318.898,-248.031)">
			<title>Circle.3</title>
			<v:userDefs>
				<v:ud v:nameU="visVersion" v:val="VT0(15):26"/>
			</v:userDefs>
			<path d="M0 538.58 A56.6929 56.6929 0 0 1 113.39 538.58 A56.6929 56.6929 0 1 1 0 538.58 Z" class="st3"/>
		</g>
		<g id="shape4-8" v:mID="4" v:groupContext="shape" transform="translate(303.307,-232.441)">
			<title>Circle.4</title>
			<v:userDefs>
				<v:ud v:nameU="visVersion" v:val="VT0(15):26"/>
			</v:userDefs>
			<path d="M0 522.99 A72.2835 72.2835 0 0 1 144.57 522.99 A72.2835 72.2835 0 1 1 0 522.99 Z" class="st3"/>
		</g>
		<g id="shape5-10" v:mID="5" v:groupContext="shape" transform="translate(847.633,660.356) rotate(135)">
			<title>Sheet.5</title>
			<path d="M0 595.28 L67.03 595.28" class="st4"/>
		</g>
		<g id="shape6-16" v:mID="6" v:groupContext="shape" transform="translate(36.3686,-241.763) rotate(-38.3724)">
			<title>Sheet.6</title>
			<path d="M20.7 595.28 L21.06 595.28 L32.51 595.28" class="st6"/>
		</g>
		<g id="shape7-22" v:mID="7" v:groupContext="shape" transform="translate(770.174,702.392) rotate(141.235)">
			<title>Sheet.7</title>
			<path d="M20.7 595.28 L21.06 595.28 L26.95 595.28" class="st6"/>
		</g>
		<g id="shape8-27" v:mID="8" v:groupContext="shape" transform="translate(427.4,-353.246)">
			<title>Sheet.8</title>
			<desc>dx</desc>
			<v:textBlock v:margins="rect(4,4,4,4)" v:tabSpace="42.5197"/>
			<v:textRect cx="91.3406" cy="584.528" width="182.69" height="21.4946"/>
			<rect x="0" y="573.781" width="182.681" height="21.4946" class="st7"/>
			<text x="4" y="595.33" class="st8" v:langID="16393"><v:paragraph/><v:tabList/>dx</text>		</g>
		<g id="shape9-30" v:mID="9" v:groupContext="shape" transform="translate(362.203,-316.395)">
			<title>Sheet.9</title>
			<desc>x</desc>
			<v:textBlock v:margins="rect(4,4,4,4)" v:tabSpace="42.5197"/>
			<v:textRect cx="91.3406" cy="584.528" width="182.69" height="21.4946"/>
			<rect x="0" y="573.781" width="182.681" height="21.4946" class="st7"/>
			<text x="4" y="595.33" class="st8" v:langID="16393"><v:paragraph/><v:tabList/>x</text>		</g>
	</g>
</svg>
