<?xml version="1.0" encoding="UTF-8" standalone="no"?>
<!DOCTYPE svg PUBLIC "-//W3C//DTD SVG 1.1//EN" "http://www.w3.org/Graphics/SVG/1.1/DTD/svg11.dtd">
<!-- Generated by Microsoft Visio, SVG Export Oct01JE14-20.svg Page-1 -->
<svg xmlns="http://www.w3.org/2000/svg" xmlns:xlink="http://www.w3.org/1999/xlink" xmlns:ev="http://www.w3.org/2001/xml-events"
		xmlns:v="http://schemas.microsoft.com/visio/2003/SVGExtensions/" width="8.41568in" height="5.58209in"
		viewBox="0 0 605.929 401.911" xml:space="preserve" color-interpolation-filters="sRGB" class="st13">
	<v:documentProperties v:langID="1033" v:metric="true" v:viewMarkup="false">
		<v:userDefs>
			<v:ud v:nameU="msvSubprocessMaster" v:prompt="" v:val="VT4(Rectangle)"/>
			<v:ud v:nameU="msvNoAutoConnect" v:val="VT0(1):26"/>
		</v:userDefs>
	</v:documentProperties>

	<style type="text/css">
	<![CDATA[
		.st1 {fill:none;stroke:none;stroke-linecap:round;stroke-linejoin:round;stroke-width:3}
		.st2 {fill:#bdedff;font-family:Arial Rounded MT Bold;font-size:6.25001em}
		.st3 {stroke:#000000;stroke-linecap:round;stroke-linejoin:round;stroke-width:4.5}
		.st4 {stroke:#000000;stroke-dasharray:3,6;stroke-linecap:round;stroke-linejoin:round;stroke-width:3}
		.st5 {fill:#000000;font-family:Calibri;font-size:3em;font-style:italic;font-weight:bold}
		.st6 {fill:#ffffff;stroke:#000000;stroke-linecap:round;stroke-linejoin:round;stroke-width:3}
		.st7 {marker-start:url(#mrkr10-79);stroke:#000000;stroke-linecap:round;stroke-linejoin:round;stroke-width:3}
		.st8 {fill:#000000;fill-opacity:1;stroke:#000000;stroke-opacity:1;stroke-width:0.54347826086957}
		.st9 {marker-end:url(#mrkr13-91);stroke:#000000;stroke-linecap:round;stroke-linejoin:round;stroke-width:3}
		.st10 {stroke:#000000;stroke-linecap:round;stroke-linejoin:round;stroke-width:3}
		.st11 {fill:none;stroke:none;stroke-width:3}
		.st12 {fill:#000000;font-family:Calibri;font-size:2.16666em;font-weight:bold}
		.st13 {fill:none;fill-rule:evenodd;font-size:12px;overflow:visible;stroke-linecap:square;stroke-miterlimit:3}
	]]>
	</style>

	<defs id="Markers">
		<g id="lend10">
			<path
					d="M 0 0.75 C -0.414214 0.75 -0.75 0.414214 -0.75 0 -0.75 -0.414214 -0.414214 -0.75 0 -0.75 0.414214 -0.75 0.75 -0.414214 0.75 0 0.75 0.414214 0.414214 0.75 0 0.75 Z "
					style="stroke:none"/>
		</g>
		<marker id="mrkr10-79" class="st8" v:arrowType="10" v:arrowSize="2" v:setback="1.26" refX="1.26" orient="auto"
				markerUnits="strokeWidth" overflow="visible">
			<use xlink:href="#lend10" transform="scale(1.84) "/>
		</marker>
		<g id="lend13">
			<path d="M 3 1 L 0 0 L 3 -1 L 3 1 " style="stroke:none"/>
		</g>
		<marker id="mrkr13-91" class="st8" v:arrowType="13" v:arrowSize="2" v:setback="5.52" refX="-5.52" orient="auto"
				markerUnits="strokeWidth" overflow="visible">
			<use xlink:href="#lend13" transform="scale(-1.84,-1.84) "/>
		</marker>
	</defs>
	<g v:mID="0" v:index="1" v:groupContext="foregroundPage">
		<v:userDefs>
			<v:ud v:nameU="msvThemeOrder" v:val="VT0(0):26"/>
		</v:userDefs>
		<title>Page-1</title>
		<v:pageProperties v:drawingScale="0.0393701" v:pageScale="0.0393701" v:drawingUnits="24" v:shadowOffsetX="8.50394"
				v:shadowOffsetY="-8.50394"/>
		<v:layer v:name="Connector" v:index="0"/>
		<g id="shape1-1" v:mID="1" v:groupContext="shape" transform="translate(19.5,-294.718)">
			<title>Sheet.1</title>
			<desc>ExamSIDE.com</desc>
			<v:textBlock v:margins="rect(4,4,4,4)" v:tabSpace="42.5197"/>
			<v:textRect cx="283.465" cy="358.065" width="566.93" height="87.6924"/>
			<rect x="0" y="314.218" width="566.929" height="87.6924" class="st1"/>
			<text x="4.08" y="380.56" class="st2" v:langID="16393"><v:paragraph v:horizAlign="1"/><v:tabList/>ExamSIDE.com</text>		</g>
		<g id="shape2-4" v:mID="2" v:groupContext="shape" transform="translate(508.629,30.1211) rotate(89.8997)">
			<title>Sheet.2</title>
			<path d="M0 401.91 L266.25 401.91" class="st3"/>
		</g>
		<g id="shape3-7" v:mID="3" v:groupContext="shape" transform="translate(107.185,-104.833)">
			<title>Sheet.3</title>
			<path d="M0 401.91 L375.56 401.91" class="st3"/>
		</g>
		<g id="shape4-10" v:mID="4" v:groupContext="shape" transform="translate(80.8345,298.829) rotate(-90.0999)">
			<title>Sheet.4</title>
			<path d="M0 401.91 L267.3 401.91" class="st3"/>
		</g>
		<g id="shape10-13" v:mID="10" v:groupContext="shape" transform="translate(107.185,-261.15)">
			<title>Sheet.10</title>
			<path d="M0 401.91 L375.56 401.91" class="st4"/>
		</g>
		<g id="shape11-16" v:mID="11" v:groupContext="shape" transform="translate(107.185,-245.621)">
			<title>Sheet.11</title>
			<path d="M0 401.91 L375.56 401.91" class="st4"/>
		</g>
		<g id="shape12-19" v:mID="12" v:groupContext="shape" transform="translate(107.185,-231.504)">
			<title>Sheet.12</title>
			<path d="M0 401.91 L375.56 401.91" class="st4"/>
		</g>
		<g id="shape13-22" v:mID="13" v:groupContext="shape" transform="translate(106.888,-214.237)">
			<title>Sheet.13</title>
			<path d="M0 401.91 L375.56 401.91" class="st4"/>
		</g>
		<g id="shape14-25" v:mID="14" v:groupContext="shape" transform="translate(106.888,-198.147)">
			<title>Sheet.14</title>
			<path d="M0 401.91 L375.56 401.91" class="st4"/>
		</g>
		<g id="shape15-28" v:mID="15" v:groupContext="shape" transform="translate(106.888,-182.058)">
			<title>Sheet.15</title>
			<path d="M0 401.91 L375.56 401.91" class="st4"/>
		</g>
		<g id="shape16-31" v:mID="16" v:groupContext="shape" transform="translate(106.424,-165.108)">
			<title>Sheet.16</title>
			<path d="M0 401.91 L375.56 401.91" class="st4"/>
		</g>
		<g id="shape17-34" v:mID="17" v:groupContext="shape" transform="translate(106.6,-148.158)">
			<title>Sheet.17</title>
			<path d="M0 401.91 L375.56 401.91" class="st4"/>
		</g>
		<g id="shape18-37" v:mID="18" v:groupContext="shape" transform="translate(106.776,-131.208)">
			<title>Sheet.18</title>
			<path d="M0 401.91 L375.56 401.91" class="st4"/>
		</g>
		<g id="shape19-40" v:mID="19" v:groupContext="shape" transform="translate(106.888,-115.041)">
			<title>Sheet.19</title>
			<path d="M0 401.91 L375.56 401.91" class="st4"/>
		</g>
		<g id="shape47-43" v:mID="47" v:groupContext="shape" transform="translate(246.607,-27.1501)">
			<title>Sheet.47</title>
			<desc>T</desc>
			<v:textBlock v:margins="rect(4,4,4,4)" v:tabSpace="42.5197"/>
			<v:textRect cx="94.6216" cy="389.461" width="189.25" height="24.9004"/>
			<rect x="0" y="377.01" width="189.243" height="24.9004" class="st1"/>
			<text x="85.71" y="400.26" class="st5" v:langID="16393"><v:paragraph v:horizAlign="1"/><v:tabList/>T</text>		</g>
		<g id="shape53-46" v:mID="53" v:groupContext="shape" transform="translate(182.255,-57.2195)">
			<title>Sheet.53</title>
			<desc>r</desc>
			<v:textBlock v:margins="rect(4,4,4,4)" v:tabSpace="42.5197"/>
			<v:textRect cx="94.6216" cy="389.461" width="189.25" height="24.9004"/>
			<rect x="0" y="377.01" width="189.243" height="24.9004" class="st1"/>
			<text x="88.28" y="400.26" class="st5" v:langID="16393"><v:paragraph v:horizAlign="1"/><v:tabList/>r</text>		</g>
		<g id="shape56-49" v:mID="56" v:groupContext="shape" transform="translate(106.719,-371.086)">
			<title>Sheet.56</title>
			<path d="M0 401.91 L375.56 401.91" class="st4"/>
		</g>
		<g id="shape57-52" v:mID="57" v:groupContext="shape" transform="translate(106.719,-355.557)">
			<title>Sheet.57</title>
			<path d="M0 401.91 L375.56 401.91" class="st4"/>
		</g>
		<g id="shape58-55" v:mID="58" v:groupContext="shape" transform="translate(106.719,-341.441)">
			<title>Sheet.58</title>
			<path d="M0 401.91 L375.56 401.91" class="st4"/>
		</g>
		<g id="shape59-58" v:mID="59" v:groupContext="shape" transform="translate(106.421,-324.174)">
			<title>Sheet.59</title>
			<path d="M0 401.91 L375.56 401.91" class="st4"/>
		</g>
		<g id="shape60-61" v:mID="60" v:groupContext="shape" transform="translate(106.421,-308.084)">
			<title>Sheet.60</title>
			<path d="M0 401.91 L375.56 401.91" class="st4"/>
		</g>
		<g id="shape61-64" v:mID="61" v:groupContext="shape" transform="translate(106.421,-291.994)">
			<title>Sheet.61</title>
			<path d="M0 401.91 L375.56 401.91" class="st4"/>
		</g>
		<g id="shape62-67" v:mID="62" v:groupContext="shape" transform="translate(105.958,-275.044)">
			<title>Sheet.62</title>
			<path d="M0 401.91 L375.56 401.91" class="st4"/>
		</g>
		<g id="shape63-70" v:mID="63" v:groupContext="shape" transform="translate(188.554,-107.264)">
			<title>Circle</title>
			<v:userDefs>
				<v:ud v:nameU="visVersion" v:val="VT0(15):26"/>
			</v:userDefs>
			<path d="M0 298.45 A103.465 103.465 0 0 1 206.93 298.45 A103.465 103.465 0 1 1 0 298.45 Z" class="st6"/>
		</g>
		<g id="shape66-72" v:mID="66" v:groupContext="shape" transform="translate(246.971,-112.048)">
			<title>Ellipse</title>
			<v:userDefs>
				<v:ud v:nameU="visVersion" v:val="VT0(15):26"/>
			</v:userDefs>
			<path d="M0 391.68 A45.0472 10.2329 0 0 1 90.09 391.68 A45.0472 10.2329 0 1 1 0 391.68 Z" class="st6"/>
		</g>
		<g id="shape67-74" v:mID="67" v:groupContext="shape" transform="translate(650.155,373.583) rotate(116.99)">
			<title>Sheet.67</title>
			<path d="M3.78 401.91 L4.14 401.91 L99.26 401.91" class="st7"/>
		</g>
		<g id="shape68-80" v:mID="68" v:groupContext="shape" transform="translate(693.929,191.182) rotate(90)">
			<title>Sheet.68</title>
			<path d="M0 401.91 L88.45 401.91" class="st4"/>
		</g>
		<g id="shape69-83" v:mID="69" v:groupContext="shape" transform="translate(292.018,681.541) rotate(180)">
			<title>Sheet.69</title>
			<path d="M0 401.91 L45.05 401.91" class="st4"/>
		</g>
		<g id="shape70-86" v:mID="70" v:groupContext="shape" transform="translate(530.115,-2.4641) rotate(45)">
			<title>Sheet.70</title>
			<path d="M0 401.91 L93.8 401.91" class="st9"/>
		</g>
		<g id="shape71-92" v:mID="71" v:groupContext="shape" transform="translate(652.377,440.979) rotate(110.98)">
			<title>Sheet.71</title>
			<path d="M0 401.91 C-7.61 388.86 15.89 393.77 12.26 401.91" class="st10"/>
		</g>
		<g id="shape72-95" v:mID="72" v:groupContext="shape" transform="translate(179.157,-198.279)">
			<title>Sheet.72</title>
			<desc>R</desc>
			<v:textBlock v:margins="rect(4,4,4,4)" v:tabSpace="42.5197"/>
			<v:textRect cx="94.6216" cy="389.461" width="189.25" height="24.9004"/>
			<rect x="0" y="377.01" width="189.243" height="24.9004" class="st11"/>
			<text x="84.49" y="400.26" class="st5" v:langID="16393"><v:paragraph v:horizAlign="1"/><v:tabList/>R</text>		</g>
		<g id="shape73-98" v:mID="73" v:groupContext="shape" transform="translate(207.727,-160.342)">
			<title>Sheet.73</title>
			<desc>θ</desc>
			<v:textBlock v:margins="rect(4,4,4,4)" v:tabSpace="42.5197"/>
			<v:textRect cx="76" cy="391.911" width="152.01" height="20"/>
			<rect x="0" y="381.911" width="152" height="20" class="st11"/>
			<text x="68.92" y="399.71" class="st12" v:langID="1032"><v:paragraph v:horizAlign="1"/><v:tabList/>θ</text>		</g>
		<g id="shape74-101" v:mID="74" v:groupContext="shape" transform="translate(216.018,-79.9043)">
			<title>Sheet.74</title>
			<desc>θ</desc>
			<v:textBlock v:margins="rect(4,4,4,4)" v:tabSpace="42.5197"/>
			<v:textRect cx="76" cy="391.911" width="152.01" height="20"/>
			<rect x="0" y="381.911" width="152" height="20" class="st11"/>
			<text x="68.92" y="399.71" class="st12" v:langID="1032"><v:paragraph v:horizAlign="1"/><v:tabList/>θ</text>		</g>
	</g>
</svg>
