<?xml version="1.0" encoding="UTF-8" standalone="no"?>
<!DOCTYPE svg PUBLIC "-//W3C//DTD SVG 1.1//EN" "http://www.w3.org/Graphics/SVG/1.1/DTD/svg11.dtd">
<!-- Generated by Microsoft Visio, SVG Export 1982lawsofmotion.svg Page-1 -->
<svg xmlns="http://www.w3.org/2000/svg" xmlns:xlink="http://www.w3.org/1999/xlink" xmlns:ev="http://www.w3.org/2001/xml-events"
		xmlns:v="http://schemas.microsoft.com/visio/2003/SVGExtensions/" width="5.77728in" height="2.81771in"
		viewBox="0 0 415.964 202.875" xml:space="preserve" color-interpolation-filters="sRGB" class="st11">
	<v:documentProperties v:langID="1033" v:viewMarkup="false">
		<v:userDefs>
			<v:ud v:nameU="msvNoAutoConnect" v:val="VT0(1):26"/>
		</v:userDefs>
	</v:documentProperties>

	<style type="text/css">
	<![CDATA[
		.st1 {fill:none;stroke:none;stroke-linecap:round;stroke-linejoin:round;stroke-width:0.75}
		.st2 {fill:#bdedff;font-family:Calibri;font-size:4.99999em}
		.st3 {stroke:#000000;stroke-linecap:round;stroke-linejoin:round;stroke-width:1.5}
		.st4 {fill:none;stroke:#000000;stroke-linecap:round;stroke-linejoin:round;stroke-width:1.5}
		.st5 {stroke:#000000;stroke-dasharray:1.5,3;stroke-linecap:round;stroke-linejoin:round;stroke-width:1.5}
		.st6 {marker-end:url(#mrkr13-211);stroke:#000000;stroke-linecap:round;stroke-linejoin:round;stroke-width:1.5}
		.st7 {fill:#000000;fill-opacity:1;stroke:#000000;stroke-opacity:1;stroke-width:0.37313432835821}
		.st8 {fill:#ffffff;stroke:#000000;stroke-linecap:round;stroke-linejoin:round;stroke-width:1.5}
		.st9 {fill:none;stroke:none;stroke-linecap:round;stroke-linejoin:round;stroke-width:1.5}
		.st10 {fill:#000000;font-family:Calibri;font-size:1.00001em;font-weight:bold}
		.st11 {fill:none;fill-rule:evenodd;font-size:12px;overflow:visible;stroke-linecap:square;stroke-miterlimit:3}
	]]>
	</style>

	<defs id="Markers">
		<g id="lend13">
			<path d="M 3 1 L 0 0 L 3 -1 L 3 1 " style="stroke:none"/>
		</g>
		<marker id="mrkr13-211" class="st7" v:arrowType="13" v:arrowSize="2" v:setback="8.04" refX="-8.04" orient="auto"
				markerUnits="strokeWidth" overflow="visible">
			<use xlink:href="#lend13" transform="scale(-2.68,-2.68) "/>
		</marker>
	</defs>
	<g v:mID="0" v:index="1" v:groupContext="foregroundPage">
		<title>Page-1</title>
		<v:pageProperties v:drawingScale="1" v:pageScale="1" v:drawingUnits="19" v:shadowOffsetX="9" v:shadowOffsetY="-9"/>
		<g id="shape1-1" v:mID="1" v:groupContext="shape" transform="translate(18.375,-102.54)">
			<title>Sheet.1</title>
			<desc>ExamSIDE.com</desc>
			<v:textBlock v:margins="rect(4,4,4,4)"/>
			<v:textRect cx="186.05" cy="192.875" width="372.11" height="20"/>
			<rect x="0" y="182.875" width="372.1" height="20" class="st1"/>
			<text x="5.58" y="210.88" class="st2" v:langID="1033"><v:paragraph v:horizAlign="1"/><v:tabList/>ExamSIDE.com</text>		</g>
		<g id="shape2-4" v:mID="2" v:groupContext="shape" transform="translate(349.964,228.375) rotate(180)">
			<title>Sheet.2</title>
			<path d="M0 202.88 L252 202.88" class="st3"/>
		</g>
		<g id="shape3-7" v:mID="3" v:groupContext="shape" transform="translate(153,-38.6547) rotate(-71.5651)">
			<title>Sheet.3</title>
			<path d="M0 202.88 L7.12 202.88" class="st3"/>
		</g>
		<g id="shape4-10" v:mID="4" v:groupContext="shape" transform="translate(148.5,-38.6547) rotate(-71.5651)">
			<title>Sheet.4</title>
			<path d="M0 202.88 L7.12 202.88" class="st3"/>
		</g>
		<g id="shape5-13" v:mID="5" v:groupContext="shape" transform="translate(144,-38.6547) rotate(-71.5651)">
			<title>Sheet.5</title>
			<path d="M0 202.88 L7.12 202.88" class="st3"/>
		</g>
		<g id="shape6-16" v:mID="6" v:groupContext="shape" transform="translate(139.5,-38.6547) rotate(-71.5651)">
			<title>Sheet.6</title>
			<path d="M0 202.88 L7.12 202.88" class="st3"/>
		</g>
		<g id="shape7-19" v:mID="7" v:groupContext="shape" transform="translate(135,-38.6547) rotate(-71.5651)">
			<title>Sheet.7</title>
			<path d="M0 202.88 L7.12 202.88" class="st3"/>
		</g>
		<g id="shape8-22" v:mID="8" v:groupContext="shape" transform="translate(130.5,-38.6547) rotate(-71.5651)">
			<title>Sheet.8</title>
			<path d="M0 202.88 L7.12 202.88" class="st3"/>
		</g>
		<g id="shape9-25" v:mID="9" v:groupContext="shape" transform="translate(126,-38.6547) rotate(-71.5651)">
			<title>Sheet.9</title>
			<path d="M0 202.88 L7.12 202.88" class="st3"/>
		</g>
		<g id="shape10-28" v:mID="10" v:groupContext="shape" transform="translate(121.5,-38.6547) rotate(-71.5651)">
			<title>Sheet.10</title>
			<path d="M0 202.88 L7.12 202.88" class="st3"/>
		</g>
		<g id="shape11-31" v:mID="11" v:groupContext="shape" transform="translate(117,-38.6547) rotate(-71.5651)">
			<title>Sheet.11</title>
			<path d="M0 202.88 L7.12 202.88" class="st3"/>
		</g>
		<g id="shape12-34" v:mID="12" v:groupContext="shape" transform="translate(112.5,-38.6547) rotate(-71.5651)">
			<title>Sheet.12</title>
			<path d="M0 202.88 L7.12 202.88" class="st3"/>
		</g>
		<g id="shape13-37" v:mID="13" v:groupContext="shape" transform="translate(108,-38.6547) rotate(-71.5651)">
			<title>Sheet.13</title>
			<path d="M0 202.88 L7.12 202.88" class="st3"/>
		</g>
		<g id="shape14-40" v:mID="14" v:groupContext="shape" transform="translate(103.5,-38.6547) rotate(-71.5651)">
			<title>Sheet.14</title>
			<path d="M0 202.88 L7.12 202.88" class="st3"/>
		</g>
		<g id="shape15-43" v:mID="15" v:groupContext="shape" transform="translate(99.0003,-38.6547) rotate(-71.5651)">
			<title>Sheet.15</title>
			<path d="M0 202.88 L7.12 202.88" class="st3"/>
		</g>
		<g id="shape16-46" v:mID="16" v:groupContext="shape" transform="translate(94.5003,-38.6547) rotate(-71.5651)">
			<title>Sheet.16</title>
			<path d="M0 202.88 L7.12 202.88" class="st3"/>
		</g>
		<g id="shape17-49" v:mID="17" v:groupContext="shape" transform="translate(90.0003,-38.6547) rotate(-71.5651)">
			<title>Sheet.17</title>
			<path d="M0 202.88 L7.12 202.88" class="st3"/>
		</g>
		<g id="shape18-52" v:mID="18" v:groupContext="shape" transform="translate(85.5003,-38.6547) rotate(-71.5651)">
			<title>Sheet.18</title>
			<path d="M0 202.88 L7.12 202.88" class="st3"/>
		</g>
		<g id="shape19-55" v:mID="19" v:groupContext="shape" transform="translate(81.0003,-38.6547) rotate(-71.5651)">
			<title>Sheet.19</title>
			<path d="M0 202.88 L7.12 202.88" class="st3"/>
		</g>
		<g id="shape20-58" v:mID="20" v:groupContext="shape" transform="translate(76.5003,-38.6547) rotate(-71.5651)">
			<title>Sheet.20</title>
			<path d="M0 202.88 L7.12 202.88" class="st3"/>
		</g>
		<g id="shape21-61" v:mID="21" v:groupContext="shape" transform="translate(72.0003,-38.6547) rotate(-71.5651)">
			<title>Sheet.21</title>
			<path d="M0 202.88 L7.12 202.88" class="st3"/>
		</g>
		<g id="shape22-64" v:mID="22" v:groupContext="shape" transform="translate(67.5003,-38.6547) rotate(-71.5651)">
			<title>Sheet.22</title>
			<path d="M0 202.88 L7.12 202.88" class="st3"/>
		</g>
		<g id="shape23-67" v:mID="23" v:groupContext="shape" transform="translate(63.0003,-38.6547) rotate(-71.5651)">
			<title>Sheet.23</title>
			<path d="M0 202.88 L7.12 202.88" class="st3"/>
		</g>
		<g id="shape24-70" v:mID="24" v:groupContext="shape" transform="translate(58.5003,-38.6547) rotate(-71.5651)">
			<title>Sheet.24</title>
			<path d="M0 202.88 L7.12 202.88" class="st3"/>
		</g>
		<g id="shape25-73" v:mID="25" v:groupContext="shape" transform="translate(54.0003,-38.6547) rotate(-71.5651)">
			<title>Sheet.25</title>
			<path d="M0 202.88 L7.12 202.88" class="st3"/>
		</g>
		<g id="shape26-76" v:mID="26" v:groupContext="shape" transform="translate(49.5003,-38.6547) rotate(-71.5651)">
			<title>Sheet.26</title>
			<path d="M0 202.88 L7.12 202.88" class="st3"/>
		</g>
		<g id="shape27-79" v:mID="27" v:groupContext="shape" transform="translate(45.0003,-38.6547) rotate(-71.5651)">
			<title>Sheet.27</title>
			<path d="M0 202.88 L7.12 202.88" class="st3"/>
		</g>
		<g id="shape28-82" v:mID="28" v:groupContext="shape" transform="translate(40.5003,-38.6547) rotate(-71.5651)">
			<title>Sheet.28</title>
			<path d="M0 202.88 L7.12 202.88" class="st3"/>
		</g>
		<g id="shape29-85" v:mID="29" v:groupContext="shape" transform="translate(36.0003,-38.6547) rotate(-71.5651)">
			<title>Sheet.29</title>
			<path d="M0 202.88 L7.12 202.88" class="st3"/>
		</g>
		<g id="shape30-88" v:mID="30" v:groupContext="shape" transform="translate(31.5003,-38.6547) rotate(-71.5651)">
			<title>Sheet.30</title>
			<path d="M0 202.88 L7.12 202.88" class="st3"/>
		</g>
		<g id="shape31-91" v:mID="31" v:groupContext="shape" transform="translate(27.0003,-38.6547) rotate(-71.5651)">
			<title>Sheet.31</title>
			<path d="M0 202.88 L7.12 202.88" class="st3"/>
		</g>
		<g id="shape32-94" v:mID="32" v:groupContext="shape" transform="translate(22.5003,-38.6547) rotate(-71.5651)">
			<title>Sheet.32</title>
			<path d="M0 202.88 L7.12 202.88" class="st3"/>
		</g>
		<g id="shape33-97" v:mID="33" v:groupContext="shape" transform="translate(18.0003,-38.6547) rotate(-71.5651)">
			<title>Sheet.33</title>
			<path d="M0 202.88 L7.12 202.88" class="st3"/>
		</g>
		<g id="shape34-100" v:mID="34" v:groupContext="shape" transform="translate(13.5003,-38.6547) rotate(-71.5651)">
			<title>Sheet.34</title>
			<path d="M0 202.88 L7.12 202.88" class="st3"/>
		</g>
		<g id="shape35-103" v:mID="35" v:groupContext="shape" transform="translate(9.00035,-38.6547) rotate(-71.5651)">
			<title>Sheet.35</title>
			<path d="M0 202.88 L7.12 202.88" class="st3"/>
		</g>
		<g id="shape36-106" v:mID="36" v:groupContext="shape" transform="translate(4.50035,-38.6547) rotate(-71.5651)">
			<title>Sheet.36</title>
			<path d="M0 202.88 L7.12 202.88" class="st3"/>
		</g>
		<g id="shape37-109" v:mID="37" v:groupContext="shape" transform="translate(0.000348752,-38.6547) rotate(-71.5651)">
			<title>Sheet.37</title>
			<path d="M0 202.88 L7.12 202.88" class="st3"/>
		</g>
		<g id="shape38-112" v:mID="38" v:groupContext="shape" transform="translate(-4.49965,-38.6547) rotate(-71.5651)">
			<title>Sheet.38</title>
			<path d="M0 202.88 L7.12 202.88" class="st3"/>
		</g>
		<g id="shape39-115" v:mID="39" v:groupContext="shape" transform="translate(-8.99965,-38.6547) rotate(-71.5651)">
			<title>Sheet.39</title>
			<path d="M0 202.88 L7.12 202.88" class="st3"/>
		</g>
		<g id="shape40-118" v:mID="40" v:groupContext="shape" transform="translate(-13.4997,-38.6547) rotate(-71.5651)">
			<title>Sheet.40</title>
			<path d="M0 202.88 L7.12 202.88" class="st3"/>
		</g>
		<g id="shape41-121" v:mID="41" v:groupContext="shape" transform="translate(-17.9997,-38.6547) rotate(-71.5651)">
			<title>Sheet.41</title>
			<path d="M0 202.88 L7.12 202.88" class="st3"/>
		</g>
		<g id="shape42-124" v:mID="42" v:groupContext="shape" transform="translate(-22.4997,-38.6547) rotate(-71.5651)">
			<title>Sheet.42</title>
			<path d="M0 202.88 L7.12 202.88" class="st3"/>
		</g>
		<g id="shape43-127" v:mID="43" v:groupContext="shape" transform="translate(-26.9997,-38.6547) rotate(-71.5651)">
			<title>Sheet.43</title>
			<path d="M0 202.88 L7.12 202.88" class="st3"/>
		</g>
		<g id="shape44-130" v:mID="44" v:groupContext="shape" transform="translate(-31.4997,-38.6547) rotate(-71.5651)">
			<title>Sheet.44</title>
			<path d="M0 202.88 L7.12 202.88" class="st3"/>
		</g>
		<g id="shape45-133" v:mID="45" v:groupContext="shape" transform="translate(-35.9997,-38.6547) rotate(-71.5651)">
			<title>Sheet.45</title>
			<path d="M0 202.88 L7.12 202.88" class="st3"/>
		</g>
		<g id="shape46-136" v:mID="46" v:groupContext="shape" transform="translate(-40.4997,-38.6547) rotate(-71.5651)">
			<title>Sheet.46</title>
			<path d="M0 202.88 L7.12 202.88" class="st3"/>
		</g>
		<g id="shape47-139" v:mID="47" v:groupContext="shape" transform="translate(-44.9997,-38.6547) rotate(-71.5651)">
			<title>Sheet.47</title>
			<path d="M0 202.88 L7.12 202.88" class="st3"/>
		</g>
		<g id="shape48-142" v:mID="48" v:groupContext="shape" transform="translate(-49.4997,-38.6547) rotate(-71.5651)">
			<title>Sheet.48</title>
			<path d="M0 202.88 L7.12 202.88" class="st3"/>
		</g>
		<g id="shape49-145" v:mID="49" v:groupContext="shape" transform="translate(-53.9997,-38.6547) rotate(-71.5651)">
			<title>Sheet.49</title>
			<path d="M0 202.88 L7.12 202.88" class="st3"/>
		</g>
		<g id="shape50-148" v:mID="50" v:groupContext="shape" transform="translate(-58.4997,-38.6547) rotate(-71.5651)">
			<title>Sheet.50</title>
			<path d="M0 202.88 L7.12 202.88" class="st3"/>
		</g>
		<g id="shape51-151" v:mID="51" v:groupContext="shape" transform="translate(-62.9997,-38.6547) rotate(-71.5651)">
			<title>Sheet.51</title>
			<path d="M0 202.88 L7.12 202.88" class="st3"/>
		</g>
		<g id="shape52-154" v:mID="52" v:groupContext="shape" transform="translate(-67.4997,-38.6547) rotate(-71.5651)">
			<title>Sheet.52</title>
			<path d="M0 202.88 L7.12 202.88" class="st3"/>
		</g>
		<g id="shape53-157" v:mID="53" v:groupContext="shape" transform="translate(-71.9997,-38.6547) rotate(-71.5651)">
			<title>Sheet.53</title>
			<path d="M0 202.88 L7.12 202.88" class="st3"/>
		</g>
		<g id="shape54-160" v:mID="54" v:groupContext="shape" transform="translate(-76.4997,-38.6547) rotate(-71.5651)">
			<title>Sheet.54</title>
			<path d="M0 202.88 L7.12 202.88" class="st3"/>
		</g>
		<g id="shape55-163" v:mID="55" v:groupContext="shape" transform="translate(-80.9997,-38.6547) rotate(-71.5651)">
			<title>Sheet.55</title>
			<path d="M0 202.88 L7.12 202.88" class="st3"/>
		</g>
		<g id="shape56-166" v:mID="56" v:groupContext="shape" transform="translate(-85.4997,-38.6547) rotate(-71.5651)">
			<title>Sheet.56</title>
			<path d="M0 202.88 L7.12 202.88" class="st3"/>
		</g>
		<g id="shape57-169" v:mID="57" v:groupContext="shape" transform="translate(-89.9997,-38.6547) rotate(-71.5651)">
			<title>Sheet.57</title>
			<path d="M0 202.88 L7.12 202.88" class="st3"/>
		</g>
		<g id="shape58-172" v:mID="58" v:groupContext="shape" transform="translate(-94.4997,-38.6547) rotate(-71.5651)">
			<title>Sheet.58</title>
			<path d="M0 202.88 L7.12 202.88" class="st3"/>
		</g>
		<g id="shape59-175" v:mID="59" v:groupContext="shape" transform="translate(157.5,-38.6547) rotate(-71.5651)">
			<title>Sheet.59</title>
			<path d="M0 202.88 L7.12 202.88" class="st3"/>
		</g>
		<g id="shape60-178" v:mID="60" v:groupContext="shape" transform="translate(131.714,-99.75)">
			<title>Circle</title>
			<v:userDefs>
				<v:ud v:nameU="visVersion" v:val="VT0(15):26"/>
			</v:userDefs>
			<path d="M0 180.38 A22.5 22.5 0 0 1 45 180.38 A22.5 22.5 0 1 1 0 180.38 Z" class="st4"/>
		</g>
		<g id="shape61-180" v:mID="61" v:groupContext="shape" transform="translate(266.714,-99.75)">
			<title>Circle.61</title>
			<v:userDefs>
				<v:ud v:nameU="visVersion" v:val="VT0(15):26"/>
			</v:userDefs>
			<path d="M0 180.38 A22.5 22.5 0 0 1 45 180.38 A22.5 22.5 0 1 1 0 180.38 Z" class="st4"/>
		</g>
		<g id="shape62-182" v:mID="62" v:groupContext="shape" transform="translate(357.089,25.5) rotate(90)">
			<title>Sheet.62</title>
			<path d="M0 202.88 L55.12 202.88" class="st3"/>
		</g>
		<g id="shape63-185" v:mID="63" v:groupContext="shape" transform="translate(492.089,25.5) rotate(90)">
			<title>Sheet.63</title>
			<path d="M0 202.88 L55.12 202.88" class="st3"/>
		</g>
		<g id="shape64-188" v:mID="64" v:groupContext="shape" transform="translate(334.589,80.625) rotate(90)">
			<title>Sheet.64</title>
			<path d="M0 202.88 L103.5 202.88" class="st3"/>
		</g>
		<g id="shape65-191" v:mID="65" v:groupContext="shape" transform="translate(514.589,80.625) rotate(90)">
			<title>Sheet.65</title>
			<path d="M0 202.88 L103.5 202.88" class="st3"/>
		</g>
		<g id="shape66-194" v:mID="66" v:groupContext="shape" transform="translate(355.468,-20.7322) rotate(63.6245)">
			<title>Sheet.66</title>
			<path d="M0 202.88 L103.73 202.88" class="st3"/>
		</g>
		<g id="shape67-197" v:mID="67" v:groupContext="shape" transform="translate(448.312,165.623) rotate(118.24)">
			<title>Sheet.67</title>
			<path d="M0 202.88 L105.23 202.88" class="st3"/>
		</g>
		<g id="shape68-200" v:mID="68" v:groupContext="shape" transform="translate(16.9199,162.329) rotate(-90)">
			<title>Sheet.68</title>
			<path d="M0 202.88 L76.5 202.88" class="st5"/>
		</g>
		<g id="shape74-203" v:mID="74" v:groupContext="shape" transform="translate(207.434,-58.9493) rotate(-0.910071)">
			<title>Sheet.74</title>
			<path d="M0 202.88 C-0.14 202.57 0.77 201.92 1.74 201.42 C7.65 198.34 15.6 200.6 19.2 202.88" class="st3"/>
		</g>
		<g id="shape75-206" v:mID="75" v:groupContext="shape" transform="translate(514.589,139.125) rotate(90)">
			<title>Sheet.75</title>
			<path d="M0 202.88 L10.44 202.88" class="st6"/>
		</g>
		<g id="shape76-212" v:mID="76" v:groupContext="shape" transform="translate(334.589,139.125) rotate(90)">
			<title>Sheet.76</title>
			<path d="M0 202.88 L10.44 202.88" class="st6"/>
		</g>
		<g id="shape77-217" v:mID="77" v:groupContext="shape" transform="translate(201.464,-18.75)">
			<title>Sheet.77</title>
			<rect x="0" y="180.375" width="36" height="22.5" class="st8"/>
		</g>
		<g id="shape78-219" v:mID="78" v:groupContext="shape" transform="translate(143.464,-18.75)">
			<title>Sheet.78</title>
			<desc>M</desc>
			<v:textBlock v:margins="rect(4,4,4,4)"/>
			<v:textRect cx="76" cy="192.875" width="152" height="20"/>
			<rect x="0" y="182.875" width="152" height="20" class="st9"/>
			<text x="70.76" y="196.48" class="st10" v:langID="1033"><v:paragraph v:horizAlign="1"/><v:tabList/>M</text>		</g>
		<g id="shape79-222" v:mID="79" v:groupContext="shape" transform="translate(95.7145,-139.25)">
			<title>Sheet.79</title>
			<desc>A</desc>
			<v:textBlock v:margins="rect(4,4,4,4)"/>
			<v:textRect cx="76" cy="192.875" width="152" height="20"/>
			<rect x="0" y="182.875" width="152" height="20" class="st9"/>
			<text x="72.36" y="196.48" class="st10" v:langID="1033"><v:paragraph v:horizAlign="1"/><v:tabList/>A</text>		</g>
		<g id="shape80-225" v:mID="80" v:groupContext="shape" transform="translate(226.214,-142.75)">
			<title>Sheet.80</title>
			<desc>B</desc>
			<v:textBlock v:margins="rect(4,4,4,4)"/>
			<v:textRect cx="76" cy="192.875" width="152" height="20"/>
			<rect x="0" y="182.875" width="152" height="20" class="st9"/>
			<text x="72.64" y="196.48" class="st10" v:langID="1033"><v:paragraph v:horizAlign="1"/><v:tabList/>B</text>		</g>
		<g id="shape81-228" v:mID="81" v:groupContext="shape" transform="translate(64.7145,-37.5398)">
			<title>Sheet.81</title>
			<desc>P</desc>
			<v:textBlock v:margins="rect(4,4,4,4)"/>
			<v:textRect cx="76" cy="192.875" width="152" height="20"/>
			<rect x="0" y="182.875" width="152" height="20" class="st9"/>
			<text x="72.81" y="196.48" class="st10" v:langID="1033"><v:paragraph v:horizAlign="1"/><v:tabList/>P</text>		</g>
		<g id="shape82-231" v:mID="82" v:groupContext="shape" transform="translate(245.214,-37.5398)">
			<title>Sheet.82</title>
			<desc>Q</desc>
			<v:textBlock v:margins="rect(4,4,4,4)"/>
			<v:textRect cx="76" cy="192.875" width="152" height="20"/>
			<rect x="0" y="182.875" width="152" height="20" class="st9"/>
			<text x="71.88" y="196.48" class="st10" v:langID="1033"><v:paragraph v:horizAlign="1"/><v:tabList/>Q</text>		</g>
		<g id="shape84-234" v:mID="84" v:groupContext="shape" transform="translate(137.214,-58.75)">
			<title>Sheet.84</title>
			<desc>θ</desc>
			<v:textBlock v:margins="rect(4,4,4,4)"/>
			<v:textRect cx="76" cy="192.875" width="152" height="20"/>
			<rect x="0" y="182.875" width="152" height="20" class="st1"/>
			<text x="72.73" y="196.48" class="st10" v:langID="1032"><v:paragraph v:horizAlign="1"/><v:tabList/>θ</text>		</g>
		<g id="shape87-237" v:mID="87" v:groupContext="shape" transform="translate(149.714,-58.75)">
			<title>Sheet.87</title>
			<desc>θ</desc>
			<v:textBlock v:margins="rect(4,4,4,4)"/>
			<v:textRect cx="76" cy="192.875" width="152" height="20"/>
			<rect x="0" y="182.875" width="152" height="20" class="st1"/>
			<text x="72.73" y="196.48" class="st10" v:langID="1032"><v:paragraph v:horizAlign="1"/><v:tabList/>θ</text>		</g>
	</g>
</svg>
