<?xml version="1.0" encoding="UTF-8" standalone="no"?>
<!DOCTYPE svg PUBLIC "-//W3C//DTD SVG 1.1//EN" "http://www.w3.org/Graphics/SVG/1.1/DTD/svg11.dtd">
<!-- Generated by Microsoft Visio, SVG Export 1979physicsans.svg Page-1 -->
<svg xmlns="http://www.w3.org/2000/svg" xmlns:xlink="http://www.w3.org/1999/xlink" xmlns:ev="http://www.w3.org/2001/xml-events"
		xmlns:v="http://schemas.microsoft.com/visio/2003/SVGExtensions/" width="5.82465in" height="3.53513in"
		viewBox="0 0 419.375 254.529" xml:space="preserve" color-interpolation-filters="sRGB" class="st10">
	<v:documentProperties v:langID="1033" v:viewMarkup="false">
		<v:userDefs>
			<v:ud v:nameU="msvNoAutoConnect" v:val="VT0(1):26"/>
		</v:userDefs>
	</v:documentProperties>

	<style type="text/css">
	<![CDATA[
		.st1 {fill:none;stroke:none;stroke-linecap:round;stroke-linejoin:round;stroke-width:2.25}
		.st2 {fill:#bdedff;font-family:Calibri;font-size:4.99999em}
		.st3 {stroke:#000000;stroke-linecap:round;stroke-linejoin:round;stroke-width:2.25}
		.st4 {marker-start:url(#mrkr13-18);stroke:#000000;stroke-linecap:round;stroke-linejoin:round;stroke-width:2.25}
		.st5 {fill:#000000;fill-opacity:1;stroke:#000000;stroke-opacity:1;stroke-width:0.47169811320755}
		.st6 {fill:#000000;font-family:Calibri;font-size:1.00001em}
		.st7 {stroke:#000000;stroke-dasharray:1.5,3;stroke-linecap:round;stroke-linejoin:round;stroke-width:1.5}
		.st8 {fill:none;stroke:none;stroke-linecap:round;stroke-linejoin:round;stroke-width:0.75}
		.st9 {fill:#000000;font-family:Calibri;font-size:1.00001em;font-weight:bold}
		.st10 {fill:none;fill-rule:evenodd;font-size:12px;overflow:visible;stroke-linecap:square;stroke-miterlimit:3}
	]]>
	</style>

	<defs id="Markers">
		<g id="lend13">
			<path d="M 3 1 L 0 0 L 3 -1 L 3 1 " style="stroke:none"/>
		</g>
		<marker id="mrkr13-18" class="st5" v:arrowType="13" v:arrowSize="2" v:setback="6.2" refX="6.2" orient="auto"
				markerUnits="strokeWidth" overflow="visible">
			<use xlink:href="#lend13" transform="scale(2.12) "/>
		</marker>
	</defs>
	<g v:mID="0" v:index="1" v:groupContext="foregroundPage">
		<title>Page-1</title>
		<v:pageProperties v:drawingScale="1" v:pageScale="1" v:drawingUnits="19" v:shadowOffsetX="9" v:shadowOffsetY="-9"/>
		<g id="shape1-1" v:mID="1" v:groupContext="shape" transform="translate(19.125,-127.404)">
			<title>Sheet.1</title>
			<desc>ExamSIDE.com</desc>
			<v:textBlock v:margins="rect(4,4,4,4)"/>
			<v:textRect cx="190.563" cy="244.529" width="381.13" height="20"/>
			<rect x="0" y="234.529" width="381.125" height="20" class="st1"/>
			<text x="10.09" y="262.53" class="st2" v:langID="1033"><v:paragraph v:horizAlign="1"/><v:tabList/>ExamSIDE.com</text>		</g>
		<g id="shape3-4" v:mID="3" v:groupContext="shape" transform="translate(363.654,28.125) rotate(90)">
			<title>Sheet.3</title>
			<path d="M0 254.53 L180 254.53" class="st3"/>
		</g>
		<g id="shape4-7" v:mID="4" v:groupContext="shape" transform="translate(109.125,-46.4041)">
			<title>Sheet.4</title>
			<path d="M0 254.53 L252 254.53" class="st3"/>
		</g>
		<g id="shape9-10" v:mID="9" v:groupContext="shape" transform="translate(136.125,-46.4041)">
			<title>Sheet.9</title>
			<path d="M0 254.53 C1.12 236.53 5.1 222.22 10.11 206.71 C18.96 179.28 31.05 148.12 51.3 131.6 C60.32 124.25 70.95 119.8
						 82.73 119.45 C92.77 119.15 103.64 121.84 113.26 126.56 C126.68 133.14 137.65 143.68 146.37 157 C152.78 166.78
						 157.97 178.05 162.19 188.79 C171.1 211.46 175.65 231.76 180 254.53" class="st3"/>
		</g>
		<g id="shape10-13" v:mID="10" v:groupContext="shape" transform="translate(350.154,37.125) rotate(90)">
			<title>Sheet.10</title>
			<path d="M13.95 254.53 L14.31 254.53 L40.32 254.53" class="st4"/>
		</g>
		<g id="shape11-19" v:mID="11" v:groupContext="shape" transform="translate(325.125,475.974) rotate(180)">
			<title>Sheet.11</title>
			<path d="M13.95 254.53 L14.31 254.53 L40.68 254.53" class="st4"/>
		</g>
		<g id="shape12-24" v:mID="12" v:groupContext="shape" transform="translate(-148.904,171.125) rotate(-90)">
			<title>Sheet.12</title>
			<desc>Time</desc>
			<v:textBlock v:margins="rect(4,4,4,4)"/>
			<v:textRect cx="76" cy="244.529" width="152" height="20"/>
			<rect x="0" y="234.529" width="152" height="20" class="st1"/>
			<text x="63.92" y="248.13" class="st6" v:langID="1033"><v:paragraph v:horizAlign="1"/><v:tabList/>Time</text>		</g>
		<g id="shape13-27" v:mID="13" v:groupContext="shape" transform="translate(181.125,-22.9041)">
			<title>Sheet.13</title>
			<desc>Position(x)</desc>
			<v:textBlock v:margins="rect(4,4,4,4)"/>
			<v:textRect cx="76" cy="244.529" width="152" height="20"/>
			<rect x="0" y="234.529" width="152" height="20" class="st1"/>
			<text x="50.07" y="248.13" class="st6" v:langID="1033"><v:paragraph v:horizAlign="1"/><v:tabList/>Position(x)</text>		</g>
		<g id="shape14-30" v:mID="14" v:groupContext="shape" transform="translate(109.125,-46.4041)">
			<title>Sheet.14</title>
			<path d="M0 201.93 L194.14 202.42 L194.14 254.53" class="st7"/>
		</g>
		<g id="shape15-33" v:mID="15" v:groupContext="shape" transform="translate(403.029,155.627) rotate(90)">
			<title>Sheet.15</title>
			<path d="M0 254.53 L52.5 254.53" class="st7"/>
		</g>
		<g id="shape16-36" v:mID="16" v:groupContext="shape" transform="translate(67.5,-94.5)">
			<title>Sheet.16</title>
			<desc>A</desc>
			<v:textBlock v:margins="rect(4,4,4,4)"/>
			<v:textRect cx="76" cy="244.529" width="152" height="20"/>
			<rect x="0" y="234.529" width="152" height="20" class="st8"/>
			<text x="72.36" y="248.13" class="st9" v:langID="1033"><v:paragraph v:horizAlign="1"/><v:tabList/>A</text>		</g>
		<g id="shape17-39" v:mID="17" v:groupContext="shape" transform="translate(234,-94.5)">
			<title>Sheet.17</title>
			<desc>B</desc>
			<v:textBlock v:margins="rect(4,4,4,4)"/>
			<v:textRect cx="76" cy="244.529" width="152" height="20"/>
			<rect x="0" y="234.529" width="152" height="20" class="st8"/>
			<text x="72.64" y="248.13" class="st9" v:langID="1033"><v:paragraph v:horizAlign="1"/><v:tabList/>B</text>		</g>
	</g>
</svg>
