<?xml version="1.0" encoding="UTF-8" standalone="no"?>
<!DOCTYPE svg PUBLIC "-//W3C//DTD SVG 1.1//EN" "http://www.w3.org/Graphics/SVG/1.1/DTD/svg11.dtd">
<!-- Generated by Microsoft Visio, SVG Export Oct04JE08-29.svg Page-1 -->
<svg xmlns="http://www.w3.org/2000/svg" xmlns:xlink="http://www.w3.org/1999/xlink" xmlns:ev="http://www.w3.org/2001/xml-events"
		xmlns:v="http://schemas.microsoft.com/visio/2003/SVGExtensions/" width="11.2522in" height="4.9108in"
		viewBox="0 0 810.156 353.578" xml:space="preserve" color-interpolation-filters="sRGB" class="st11">
	<v:documentProperties v:langID="1033" v:metric="true" v:viewMarkup="false">
		<v:userDefs>
			<v:ud v:nameU="msvSubprocessMaster" v:prompt="" v:val="VT4(Rectangle)"/>
			<v:ud v:nameU="msvNoAutoConnect" v:val="VT0(1):26"/>
		</v:userDefs>
	</v:documentProperties>

	<style type="text/css">
	<![CDATA[
		.st1 {fill:none;stroke:none;stroke-linecap:round;stroke-linejoin:round;stroke-width:4.5}
		.st2 {fill:#bdedff;font-family:Arial Rounded MT Bold;font-size:7.08334em}
		.st3 {stroke:#000000;stroke-linecap:round;stroke-linejoin:round;stroke-width:4.5}
		.st4 {marker-end:url(#mrkr13-51);marker-start:url(#mrkr13-49);stroke:#000000;stroke-linecap:round;stroke-linejoin:round;stroke-width:2.25}
		.st5 {fill:#000000;fill-opacity:1;stroke:#000000;stroke-opacity:1;stroke-width:0.47169811320755}
		.st6 {marker-end:url(#mrkr13-60);marker-start:url(#mrkr13-58);stroke:#000000;stroke-linecap:round;stroke-linejoin:round;stroke-width:4.5}
		.st7 {fill:#000000;fill-opacity:1;stroke:#000000;stroke-opacity:1;stroke-width:0.64102564102564}
		.st8 {fill:none;stroke:none;stroke-width:0.25}
		.st9 {fill:#000000;font-family:Calibri;font-size:3em;font-weight:bold}
		.st10 {baseline-shift:-32.4951%;font-size:0.649902em}
		.st11 {fill:none;fill-rule:evenodd;font-size:12px;overflow:visible;stroke-linecap:square;stroke-miterlimit:3}
	]]>
	</style>

	<defs id="Markers">
		<g id="lend13">
			<path d="M 3 1 L 0 0 L 3 -1 L 3 1 " style="stroke:none"/>
		</g>
		<marker id="mrkr13-49" class="st5" v:arrowType="13" v:arrowSize="2" v:setback="6.2" refX="6.2" orient="auto"
				markerUnits="strokeWidth" overflow="visible">
			<use xlink:href="#lend13" transform="scale(2.12) "/>
		</marker>
		<marker id="mrkr13-51" class="st5" v:arrowType="13" v:arrowSize="2" v:setback="6.36" refX="-6.36" orient="auto"
				markerUnits="strokeWidth" overflow="visible">
			<use xlink:href="#lend13" transform="scale(-2.12,-2.12) "/>
		</marker>
		<marker id="mrkr13-58" class="st7" v:arrowType="13" v:arrowSize="2" v:setback="4.6" refX="4.6" orient="auto"
				markerUnits="strokeWidth" overflow="visible">
			<use xlink:href="#lend13" transform="scale(1.56) "/>
		</marker>
		<marker id="mrkr13-60" class="st7" v:arrowType="13" v:arrowSize="2" v:setback="4.68" refX="-4.68" orient="auto"
				markerUnits="strokeWidth" overflow="visible">
			<use xlink:href="#lend13" transform="scale(-1.56,-1.56) "/>
		</marker>
	</defs>
	<g v:mID="0" v:index="1" v:groupContext="foregroundPage">
		<v:userDefs>
			<v:ud v:nameU="msvThemeOrder" v:val="VT0(0):26"/>
		</v:userDefs>
		<title>Page-1</title>
		<v:pageProperties v:drawingScale="0.0393701" v:pageScale="0.0393701" v:drawingUnits="24" v:shadowOffsetX="8.50394"
				v:shadowOffsetY="-8.50394"/>
		<v:layer v:name="Connector" v:index="0"/>
		<g id="shape1-1" v:mID="1" v:groupContext="shape" transform="translate(20.25,-108.515)">
			<title>Sheet.1</title>
			<desc>ExamSIDE.com</desc>
			<v:textBlock v:margins="rect(4,4,4,4)" v:tabSpace="42.5197"/>
			<v:textRect cx="368.504" cy="315.779" width="737.01" height="75.5969"/>
			<rect x="0" y="277.981" width="737.008" height="75.5969" class="st1"/>
			<text x="51.87" y="341.28" class="st2" v:langID="16393"><v:paragraph v:horizAlign="1"/><v:tabList/>ExamSIDE.com</text>		</g>
		<g id="shape2-4" v:mID="2" v:groupContext="shape" transform="translate(471.574,80.1646) rotate(90)">
			<title>Sheet.2</title>
			<path d="M0 353.58 L249.25 353.58" class="st3"/>
		</g>
		<g id="shape3-7" v:mID="3" v:groupContext="shape" transform="translate(667.067,80.1646) rotate(90)">
			<title>Sheet.3</title>
			<path d="M0 353.58 L249.25 353.58" class="st3"/>
		</g>
		<g id="shape4-10" v:mID="4" v:groupContext="shape" transform="translate(536.576,80.1646) rotate(90)">
			<title>Sheet.4</title>
			<path d="M0 353.58 L249.25 353.58" class="st3"/>
		</g>
		<g id="shape6-13" v:mID="6" v:groupContext="shape" transform="translate(313,-151.23)">
			<title>Sheet.6</title>
			<path d="M0 353.58 L61.09 353.58" class="st3"/>
		</g>
		<g id="shape7-16" v:mID="7" v:groupContext="shape" transform="translate(117.996,561.79) rotate(180)">
			<title>Sheet.7</title>
			<path d="M0 353.58 L73.31 353.58" class="st3"/>
		</g>
		<g id="shape8-19" v:mID="8" v:groupContext="shape" transform="translate(386.31,-163.448)">
			<title>Sheet.8</title>
			<path d="M0 353.58 L24.93 353.58" class="st3"/>
		</g>
		<g id="shape9-22" v:mID="9" v:groupContext="shape" transform="translate(386.799,-151.23)">
			<title>Sheet.9</title>
			<path d="M0 353.58 L24.93 353.58" class="st3"/>
		</g>
		<g id="shape10-25" v:mID="10" v:groupContext="shape" transform="translate(386.31,-139.012)">
			<title>Sheet.10</title>
			<path d="M0 353.58 L24.93 353.58" class="st3"/>
		</g>
		<g id="shape11-28" v:mID="11" v:groupContext="shape" transform="translate(427.852,-151.23)">
			<title>Sheet.11</title>
			<path d="M0 353.58 L24.44 353.58" class="st3"/>
		</g>
		<g id="shape12-31" v:mID="12" v:groupContext="shape" transform="translate(952.487,119.263) rotate(90)">
			<title>Sheet.12</title>
			<path d="M0 353.58 L171.06 353.58" class="st3"/>
		</g>
		<g id="shape14-34" v:mID="14" v:groupContext="shape" transform="translate(862.071,119.263) rotate(90)">
			<title>Sheet.14</title>
			<path d="M0 353.58 L171.06 353.58" class="st3"/>
		</g>
		<g id="shape15-37" v:mID="15" v:groupContext="shape" transform="translate(805.867,119.263) rotate(90)">
			<title>Sheet.15</title>
			<path d="M0 353.58 L171.06 353.58" class="st3"/>
		</g>
		<g id="shape17-40" v:mID="17" v:groupContext="shape" transform="translate(1022.86,120.241) rotate(90)">
			<title>Sheet.17</title>
			<path d="M0 353.58 L171.06 353.58" class="st3"/>
		</g>
		<g id="shape18-43" v:mID="18" v:groupContext="shape" transform="translate(176.156,422.99) rotate(180)">
			<title>Sheet.18</title>
			<path d="M13.95 353.58 L14.31 353.58 L38.47 353.58" class="st4"/>
		</g>
		<g id="shape19-52" v:mID="19" v:groupContext="shape" transform="translate(191.306,-285.631)">
			<title>Sheet.19</title>
			<path d="M20.7 353.58 L21.06 353.58 L88.9 353.58" class="st6"/>
		</g>
		<g id="shape20-61" v:mID="20" v:groupContext="shape" transform="translate(-176.198,-79.3102) rotate(-56.3099)">
			<title>Sheet.20</title>
			<path d="M0 353.58 L44.05 353.58" class="st3"/>
		</g>
		<g id="shape21-64" v:mID="21" v:groupContext="shape" transform="translate(-174.563,-45.412) rotate(-56.1965)">
			<title>Sheet.21</title>
			<path d="M0 353.58 L85.61 353.58" class="st3"/>
		</g>
		<g id="shape22-67" v:mID="22" v:groupContext="shape" transform="translate(478.617,290.915) rotate(121.799)">
			<title>Sheet.22</title>
			<path d="M0 353.58 L86.26 353.58" class="st3"/>
		</g>
		<g id="shape25-70" v:mID="25" v:groupContext="shape" transform="translate(488.854,318.652) rotate(120.114)">
			<title>Sheet.25</title>
			<path d="M0 353.58 L56.5 353.58" class="st3"/>
		</g>
		<g id="shape26-73" v:mID="26" v:groupContext="shape" transform="translate(436.628,422.914) rotate(123.69)">
			<title>Sheet.26</title>
			<path d="M0 353.58 L44.05 353.58" class="st3"/>
		</g>
		<g id="shape27-76" v:mID="27" v:groupContext="shape" transform="translate(463.03,415.534) rotate(123.111)">
			<title>Sheet.27</title>
			<path d="M0 353.58 L67.1 353.58" class="st3"/>
		</g>
		<g id="shape28-79" v:mID="28" v:groupContext="shape" transform="translate(469.735,446.806) rotate(123.584)">
			<title>Sheet.28</title>
			<path d="M0 353.58 L73.33 353.58" class="st3"/>
		</g>
		<g id="shape29-82" v:mID="29" v:groupContext="shape" transform="translate(485.699,458.06) rotate(120.964)">
			<title>Sheet.29</title>
			<path d="M0 353.58 L57 353.58" class="st3"/>
		</g>
		<g id="shape30-85" v:mID="30" v:groupContext="shape" transform="translate(526.852,-169.853) rotate(45)">
			<title>Sheet.30</title>
			<path d="M0 353.58 L51.84 353.58" class="st3"/>
		</g>
		<g id="shape31-88" v:mID="31" v:groupContext="shape" transform="translate(490.197,-177.672) rotate(45)">
			<title>Sheet.31</title>
			<path d="M0 353.58 L103.68 353.58" class="st3"/>
		</g>
		<g id="shape32-91" v:mID="32" v:groupContext="shape" transform="translate(464.501,-171.106) rotate(44.7121)">
			<title>Sheet.32</title>
			<path d="M0 353.58 L137.54 353.58" class="st3"/>
		</g>
		<g id="shape33-94" v:mID="33" v:groupContext="shape" transform="translate(442.81,-159.071) rotate(45.3417)">
			<title>Sheet.33</title>
			<path d="M0 353.58 L173.83 353.58" class="st3"/>
		</g>
		<g id="shape34-97" v:mID="34" v:groupContext="shape" transform="translate(433.015,-133.198) rotate(45)">
			<title>Sheet.34</title>
			<path d="M0 353.58 L97.8 353.58" class="st3"/>
		</g>
		<g id="shape35-100" v:mID="35" v:groupContext="shape" transform="translate(560.679,-4.45809) rotate(50.1944)">
			<title>Sheet.35</title>
			<path d="M0 353.58 L38.17 353.58" class="st3"/>
		</g>
		<g id="shape36-103" v:mID="36" v:groupContext="shape" transform="translate(424.663,-101.203) rotate(43.1167)">
			<title>Sheet.36</title>
			<path d="M0 353.58 L178.76 353.58" class="st3"/>
		</g>
		<g id="shape37-106" v:mID="37" v:groupContext="shape" transform="translate(424.663,-62.1047) rotate(43.1167)">
			<title>Sheet.37</title>
			<path d="M0 353.58 L178.76 353.58" class="st3"/>
		</g>
		<g id="shape39-109" v:mID="39" v:groupContext="shape" transform="translate(432.568,-16.8298) rotate(44.6745)">
			<title>Sheet.39</title>
			<path d="M0 353.58 L121.65 353.58" class="st3"/>
		</g>
		<g id="shape40-112" v:mID="40" v:groupContext="shape" transform="translate(434.933,20.2427) rotate(44.5453)">
			<title>Sheet.40</title>
			<path d="M0 353.58 L87.09 353.58" class="st3"/>
		</g>
		<g id="shape42-115" v:mID="42" v:groupContext="shape" transform="translate(508.982,-151.23)">
			<title>Sheet.42</title>
			<path d="M0 353.58 L89.93 353.58" class="st3"/>
		</g>
		<g id="shape43-118" v:mID="43" v:groupContext="shape" transform="translate(669.286,-151.23)">
			<title>Sheet.43</title>
			<path d="M0 353.58 L59.63 353.58" class="st3"/>
		</g>
		<g id="shape44-121" v:mID="44" v:groupContext="shape" transform="translate(113.161,-303.231)">
			<title>Sheet.44</title>
			<desc>d/3</desc>
			<v:textBlock v:margins="rect(4,4,4,4)" v:tabSpace="42.5197"/>
			<v:textRect cx="91.3406" cy="342.831" width="182.69" height="21.4946"/>
			<rect x="0" y="332.083" width="182.681" height="21.4946" class="st8"/>
			<text x="4" y="353.63" class="st9" v:langID="16393"><v:paragraph/><v:tabList/>d/3</text>		</g>
		<g id="shape45-124" v:mID="45" v:groupContext="shape" transform="translate(204.502,-299.805)">
			<title>Sheet.45</title>
			<desc>2d/3</desc>
			<v:textBlock v:margins="rect(4,4,4,4)" v:tabSpace="42.5197"/>
			<v:textRect cx="91.3406" cy="342.831" width="182.69" height="21.4946"/>
			<rect x="0" y="332.083" width="182.681" height="21.4946" class="st8"/>
			<text x="4" y="353.63" class="st9" v:langID="16393"><v:paragraph/><v:tabList/>2d/3</text>		</g>
		<g id="shape46-127" v:mID="46" v:groupContext="shape" transform="translate(127.335,-143.899)">
			<title>Sheet.46</title>
			<desc>K1</desc>
			<v:textBlock v:margins="rect(4,4,4,4)" v:tabSpace="42.5197"/>
			<v:textRect cx="91.3406" cy="342.831" width="182.69" height="21.4946"/>
			<rect x="0" y="332.083" width="182.681" height="21.4946" class="st8"/>
			<text x="4" y="353.63" class="st9" v:langID="16393"><v:paragraph/><v:tabList/>K<tspan dy="-0.284em" class="st10"
						v:baseFontSize="36">1</tspan></text>		</g>
		<g id="shape47-131" v:mID="47" v:groupContext="shape" transform="translate(240.72,-143.899)">
			<title>Sheet.47</title>
			<desc>K2</desc>
			<v:textBlock v:margins="rect(4,4,4,4)" v:tabSpace="42.5197"/>
			<v:textRect cx="91.3406" cy="342.831" width="182.69" height="21.4946"/>
			<rect x="0" y="332.083" width="182.681" height="21.4946" class="st8"/>
			<text x="4" y="353.63" class="st9" v:langID="16393"><v:paragraph/><v:tabList/>K<tspan dy="-0.284em" class="st10"
						v:baseFontSize="36">2</tspan></text>		</g>
		<g id="shape48-135" v:mID="48" v:groupContext="shape" transform="translate(461.191,-138.846)">
			<title>Sheet.48</title>
			<desc>C1</desc>
			<v:textBlock v:margins="rect(4,4,4,4)" v:tabSpace="42.5197"/>
			<v:textRect cx="91.3406" cy="342.831" width="182.69" height="21.4946"/>
			<rect x="0" y="332.083" width="182.681" height="21.4946" class="st8"/>
			<text x="4" y="353.63" class="st9" v:langID="16393"><v:paragraph/><v:tabList/>C<tspan dy="-0.284em" class="st10"
						v:baseFontSize="36">1</tspan></text>		</g>
		<g id="shape49-139" v:mID="49" v:groupContext="shape" transform="translate(609.224,-139.979)">
			<title>Sheet.49</title>
			<desc>C2</desc>
			<v:textBlock v:margins="rect(4,4,4,4)" v:tabSpace="42.5197"/>
			<v:textRect cx="91.3406" cy="342.831" width="182.69" height="21.4946"/>
			<rect x="0" y="332.083" width="182.681" height="21.4946" class="st8"/>
			<text x="4" y="353.63" class="st9" v:langID="16393"><v:paragraph/><v:tabList/>C<tspan dy="-0.284em" class="st10"
						v:baseFontSize="36">2</tspan></text>		</g>
	</g>
</svg>
