<?xml version="1.0" encoding="UTF-8" standalone="no"?>
<!DOCTYPE svg PUBLIC "-//W3C//DTD SVG 1.1//EN" "http://www.w3.org/Graphics/SVG/1.1/DTD/svg11.dtd">
<!-- Generated by Microsoft Visio, SVG Export Oct01JE06-07.svg Page-1 -->
<svg xmlns="http://www.w3.org/2000/svg" xmlns:xlink="http://www.w3.org/1999/xlink" xmlns:ev="http://www.w3.org/2001/xml-events"
		xmlns:v="http://schemas.microsoft.com/visio/2003/SVGExtensions/" width="11.6929in" height="8.26772in"
		viewBox="0 0 841.89 595.276" xml:space="preserve" color-interpolation-filters="sRGB" class="st11">
	<v:documentProperties v:langID="1033" v:metric="true" v:viewMarkup="false">
		<v:userDefs>
			<v:ud v:nameU="msvSubprocessMaster" v:prompt="" v:val="VT4(Rectangle)"/>
			<v:ud v:nameU="msvNoAutoConnect" v:val="VT0(1):26"/>
		</v:userDefs>
	</v:documentProperties>

	<style type="text/css">
	<![CDATA[
		.st1 {fill:none;stroke:none;stroke-linecap:round;stroke-linejoin:round;stroke-width:4.5}
		.st2 {fill:#bdedff;font-family:Arial Rounded MT Bold;font-size:6.66666em}
		.st3 {fill:#000000;font-family:Calibri;font-size:3em;font-style:italic}
		.st4 {fill:none;stroke:#000000;stroke-linecap:round;stroke-linejoin:round;stroke-width:4.5}
		.st5 {marker-start:url(#mrkr13-14);stroke:#000000;stroke-linecap:round;stroke-linejoin:round;stroke-width:4.5}
		.st6 {fill:#000000;fill-opacity:1;stroke:#000000;stroke-opacity:1;stroke-width:0.64102564102564}
		.st7 {fill:#ffffff;stroke:#000000;stroke-linecap:round;stroke-linejoin:round;stroke-width:4.5}
		.st8 {marker-end:url(#mrkr13-29);stroke:#000000;stroke-linecap:round;stroke-linejoin:round;stroke-width:4.5}
		.st9 {marker-start:url(#mrkr10-40);stroke:#000000;stroke-linecap:round;stroke-linejoin:round;stroke-width:4.5}
		.st10 {stroke:#000000;stroke-linecap:round;stroke-linejoin:round;stroke-width:4.5}
		.st11 {fill:none;fill-rule:evenodd;font-size:12px;overflow:visible;stroke-linecap:square;stroke-miterlimit:3}
	]]>
	</style>

	<defs id="Markers">
		<g id="lend13">
			<path d="M 3 1 L 0 0 L 3 -1 L 3 1 " style="stroke:none"/>
		</g>
		<marker id="mrkr13-14" class="st6" v:arrowType="13" v:arrowSize="2" v:setback="4.6" refX="4.6" orient="auto"
				markerUnits="strokeWidth" overflow="visible">
			<use xlink:href="#lend13" transform="scale(1.56) "/>
		</marker>
		<marker id="mrkr13-29" class="st6" v:arrowType="13" v:arrowSize="2" v:setback="4.68" refX="-4.68" orient="auto"
				markerUnits="strokeWidth" overflow="visible">
			<use xlink:href="#lend13" transform="scale(-1.56,-1.56) "/>
		</marker>
		<g id="lend10">
			<path
					d="M 0 0.75 C -0.414214 0.75 -0.75 0.414214 -0.75 0 -0.75 -0.414214 -0.414214 -0.75 0 -0.75 0.414214 -0.75 0.75 -0.414214 0.75 0 0.75 0.414214 0.414214 0.75 0 0.75 Z "
					style="stroke:none"/>
		</g>
		<marker id="mrkr10-40" class="st6" v:arrowType="10" v:arrowSize="2" v:setback="1.09" refX="1.09" orient="auto"
				markerUnits="strokeWidth" overflow="visible">
			<use xlink:href="#lend10" transform="scale(1.56) "/>
		</marker>
	</defs>
	<g v:mID="0" v:index="1" v:groupContext="foregroundPage">
		<v:userDefs>
			<v:ud v:nameU="msvThemeOrder" v:val="VT0(0):26"/>
		</v:userDefs>
		<title>Page-1</title>
		<v:pageProperties v:drawingScale="0.0393701" v:pageScale="0.0393701" v:drawingUnits="24" v:shadowOffsetX="8.50394"
				v:shadowOffsetY="-8.50394"/>
		<v:layer v:name="Connector" v:index="0"/>
		<g id="shape1-1" v:mID="1" v:groupContext="shape" transform="translate(58.6063,-349.767)">
			<title>Sheet.1</title>
			<desc>ExamSIDE.com</desc>
			<v:textBlock v:margins="rect(4,4,4,4)" v:tabSpace="42.5197"/>
			<v:textRect cx="309.898" cy="558.229" width="619.8" height="74.0924"/>
			<rect x="0" y="521.183" width="619.795" height="74.0924" class="st1"/>
			<text x="11.89" y="582.23" class="st2" v:langID="16393"><v:paragraph v:horizAlign="1"/><v:tabList/>ExamSIDE.com</text>		</g>
		<g id="shape45-4" v:mID="45" v:groupContext="shape" transform="translate(182.613,-110.842)">
			<title>Sheet.45</title>
			<desc>W</desc>
			<v:textBlock v:margins="rect(4,4,4,4)" v:tabSpace="42.5197"/>
			<v:textRect cx="64.2134" cy="586.826" width="128.43" height="16.8983"/>
			<rect x="0" y="578.377" width="128.427" height="16.8983" class="st1"/>
			<text x="48.19" y="597.63" class="st3" v:langID="16393"><v:paragraph v:horizAlign="1"/><v:tabList/>W</text>		</g>
		<g id="shape73-7" v:mID="73" v:groupContext="shape" transform="translate(461.258,-349.767)">
			<title>Circle</title>
			<v:userDefs>
				<v:ud v:nameU="visVersion" v:val="VT0(15):26"/>
			</v:userDefs>
			<path d="M0 558.23 A37.0462 37.0462 0 0 1 74.09 558.23 A37.0462 37.0462 0 1 1 0 558.23 Z" class="st4"/>
		</g>
		<g id="shape79-9" v:mID="79" v:groupContext="shape" transform="translate(1131.81,332.999) rotate(90)">
			<title>Sheet.79</title>
			<path d="M20.7 595.28 L21.06 595.28 L83.83 595.28" class="st5"/>
		</g>
		<g id="shape80-15" v:mID="80" v:groupContext="shape" transform="translate(1055.35,332.999) rotate(90)">
			<title>Sheet.80</title>
			<path d="M20.7 595.28 L21.06 595.28 L83.83 595.28" class="st5"/>
		</g>
		<g id="shape84-20" v:mID="84" v:groupContext="shape" transform="translate(518.01,-141.407)">
			<title>Square</title>
			<v:userDefs>
				<v:ud v:nameU="visVersion" v:val="VT0(15):26"/>
			</v:userDefs>
			<rect x="0" y="558.232" width="37.044" height="37.044" class="st7"/>
		</g>
		<g id="shape85-22" v:mID="85" v:groupContext="shape" transform="translate(441.555,-141.407)">
			<title>Square.85</title>
			<v:userDefs>
				<v:ud v:nameU="visVersion" v:val="VT0(15):26"/>
			</v:userDefs>
			<rect x="0" y="558.232" width="37.044" height="37.044" class="st7"/>
		</g>
		<g id="shape86-24" v:mID="86" v:groupContext="shape" transform="translate(1055.35,453.869) rotate(90)">
			<title>Sheet.86</title>
			<path d="M0 595.28 L22.53 595.28" class="st8"/>
		</g>
		<g id="shape87-30" v:mID="87" v:groupContext="shape" transform="translate(1131.81,453.869) rotate(90)">
			<title>Sheet.87</title>
			<path d="M0 595.28 L22.53 595.28" class="st8"/>
		</g>
		<g id="shape88-35" v:mID="88" v:groupContext="shape" transform="translate(-96.9709,208.463) rotate(-90)">
			<title>Sheet.88</title>
			<path d="M4.9 595.28 L5.26 595.28 L112.09 595.28" class="st9"/>
		</g>
		<g id="shape89-41" v:mID="89" v:groupContext="shape" transform="translate(416.471,-498.902)">
			<title>Sheet.89</title>
			<path d="M0 574.44 L20.84 595.28 L152.56 595.28" class="st10"/>
		</g>
		<g id="shape90-44" v:mID="90" v:groupContext="shape" transform="translate(28.3599,517.297) rotate(-135)">
			<title>Sheet.90</title>
			<path d="M0 595.28 L28.45 595.28" class="st10"/>
		</g>
		<g id="shape91-47" v:mID="91" v:groupContext="shape" transform="translate(45.1251,517.297) rotate(-135)">
			<title>Sheet.91</title>
			<path d="M0 595.28 L28.45 595.28" class="st10"/>
		</g>
		<g id="shape92-50" v:mID="92" v:groupContext="shape" transform="translate(58.5373,517.297) rotate(-135)">
			<title>Sheet.92</title>
			<path d="M0 595.28 L28.45 595.28" class="st10"/>
		</g>
		<g id="shape93-53" v:mID="93" v:groupContext="shape" transform="translate(73.8655,517.297) rotate(-135)">
			<title>Sheet.93</title>
			<path d="M0 595.28 L28.45 595.28" class="st10"/>
		</g>
		<g id="shape94-56" v:mID="94" v:groupContext="shape" transform="translate(88.2356,517.297) rotate(-135)">
			<title>Sheet.94</title>
			<path d="M0 595.28 L28.45 595.28" class="st10"/>
		</g>
		<g id="shape95-59" v:mID="95" v:groupContext="shape" transform="translate(104.282,516.698) rotate(-135)">
			<title>Sheet.95</title>
			<path d="M0 595.28 L28.45 595.28" class="st10"/>
		</g>
		<g id="shape96-62" v:mID="96" v:groupContext="shape" transform="translate(121.048,516.698) rotate(-135)">
			<title>Sheet.96</title>
			<path d="M0 595.28 L28.45 595.28" class="st10"/>
		</g>
		<g id="shape97-65" v:mID="97" v:groupContext="shape" transform="translate(134.46,516.698) rotate(-135)">
			<title>Sheet.97</title>
			<path d="M0 595.28 L28.45 595.28" class="st10"/>
		</g>
		<g id="shape98-68" v:mID="98" v:groupContext="shape" transform="translate(149.788,516.698) rotate(-135)">
			<title>Sheet.98</title>
			<path d="M0 595.28 L28.45 595.28" class="st10"/>
		</g>
		<g id="shape111-71" v:mID="111" v:groupContext="shape" transform="translate(209.78,-181.873)">
			<title>Rectangle</title>
			<v:userDefs>
				<v:ud v:nameU="visVersion" v:val="VT0(15):26"/>
			</v:userDefs>
			<rect x="0" y="539.706" width="74.0924" height="55.5693" class="st4"/>
		</g>
		<g id="shape112-73" v:mID="112" v:groupContext="shape" transform="translate(365.457,691.649) rotate(180)">
			<title>Sheet.112</title>
			<path d="M0 595.28 L235.67 595.28" class="st10"/>
		</g>
		<g id="shape114-76" v:mID="114" v:groupContext="shape" transform="translate(839.015,89.4362) rotate(89.3323)">
			<title>Sheet.114</title>
			<path d="M0 595.28 L261.48 595.28" class="st10"/>
		</g>
		<g id="shape115-79" v:mID="115" v:groupContext="shape" transform="translate(842.01,376.737) rotate(88.991)">
			<title>Sheet.115</title>
			<path d="M0 595.28 L47.36 595.28" class="st8"/>
		</g>
		<g id="shape117-84" v:mID="117" v:groupContext="shape" transform="translate(-282.994,-325.508) rotate(-45)">
			<title>Sheet.117</title>
			<path d="M0 595.28 L34.21 595.28" class="st10"/>
		</g>
		<g id="shape118-87" v:mID="118" v:groupContext="shape" transform="translate(-271.019,-324.55) rotate(-45)">
			<title>Sheet.118</title>
			<path d="M0 595.28 L34.21 595.28" class="st10"/>
		</g>
		<g id="shape119-90" v:mID="119" v:groupContext="shape" transform="translate(-259.044,-324.55) rotate(-45)">
			<title>Sheet.119</title>
			<path d="M0 595.28 L34.21 595.28" class="st10"/>
		</g>
		<g id="shape120-93" v:mID="120" v:groupContext="shape" transform="translate(-245.152,-324.55) rotate(-45)">
			<title>Sheet.120</title>
			<path d="M0 595.28 L34.21 595.28" class="st10"/>
		</g>
		<g id="shape121-96" v:mID="121" v:groupContext="shape" transform="translate(-232.219,-324.55) rotate(-45)">
			<title>Sheet.121</title>
			<path d="M0 595.28 L34.21 595.28" class="st10"/>
		</g>
		<g id="shape122-99" v:mID="122" v:groupContext="shape" transform="translate(-217.849,-324.55) rotate(-45)">
			<title>Sheet.122</title>
			<path d="M0 595.28 L34.21 595.28" class="st10"/>
		</g>
		<g id="shape123-102" v:mID="123" v:groupContext="shape" transform="translate(-203,-324.55) rotate(-45)">
			<title>Sheet.123</title>
			<path d="M0 595.28 L34.21 595.28" class="st10"/>
		</g>
		<g id="shape124-105" v:mID="124" v:groupContext="shape" transform="translate(-189.588,-324.55) rotate(-45)">
			<title>Sheet.124</title>
			<path d="M0 595.28 L34.21 595.28" class="st10"/>
		</g>
		<g id="shape125-108" v:mID="125" v:groupContext="shape" transform="translate(-175.284,-324.55) rotate(-45)">
			<title>Sheet.125</title>
			<path d="M0 595.28 L34.21 595.28" class="st10"/>
		</g>
		<g id="shape127-111" v:mID="127" v:groupContext="shape" transform="translate(-159.889,-325.867) rotate(-45)">
			<title>Sheet.127</title>
			<path d="M0 595.28 L34.21 595.28" class="st10"/>
		</g>
		<g id="shape128-114" v:mID="128" v:groupContext="shape" transform="translate(-147.914,-325.867) rotate(-45)">
			<title>Sheet.128</title>
			<path d="M0 595.28 L34.21 595.28" class="st10"/>
		</g>
		<g id="shape129-117" v:mID="129" v:groupContext="shape" transform="translate(-134.023,-325.867) rotate(-45)">
			<title>Sheet.129</title>
			<path d="M0 595.28 L34.21 595.28" class="st10"/>
		</g>
		<g id="shape130-120" v:mID="130" v:groupContext="shape" transform="translate(-121.09,-325.867) rotate(-45)">
			<title>Sheet.130</title>
			<path d="M0 595.28 L34.21 595.28" class="st10"/>
		</g>
		<g id="shape131-123" v:mID="131" v:groupContext="shape" transform="translate(-106.72,-325.867) rotate(-45)">
			<title>Sheet.131</title>
			<path d="M0 595.28 L34.21 595.28" class="st10"/>
		</g>
		<g id="shape132-126" v:mID="132" v:groupContext="shape" transform="translate(-91.8705,-325.867) rotate(-45)">
			<title>Sheet.132</title>
			<path d="M0 595.28 L34.21 595.28" class="st10"/>
		</g>
		<g id="shape133-129" v:mID="133" v:groupContext="shape" transform="translate(-78.4584,-325.867) rotate(-45)">
			<title>Sheet.133</title>
			<path d="M0 595.28 L34.21 595.28" class="st10"/>
		</g>
		<g id="shape134-132" v:mID="134" v:groupContext="shape" transform="translate(-64.1547,-325.867) rotate(-45)">
			<title>Sheet.134</title>
			<path d="M0 595.28 L34.21 595.28" class="st10"/>
		</g>
		<g id="shape138-135" v:mID="138" v:groupContext="shape" transform="translate(397.045,-65.4177)">
			<title>Sheet.138</title>
			<desc>W</desc>
			<v:textBlock v:margins="rect(4,4,4,4)" v:tabSpace="42.5197"/>
			<v:textRect cx="64.2134" cy="586.826" width="128.43" height="16.8983"/>
			<rect x="0" y="578.377" width="128.427" height="16.8983" class="st1"/>
			<text x="48.19" y="597.63" class="st3" v:langID="16393"><v:paragraph v:horizAlign="1"/><v:tabList/>W</text>		</g>
		<g id="shape139-138" v:mID="139" v:groupContext="shape" transform="translate(468.896,-68.9438)">
			<title>Sheet.139</title>
			<desc>W</desc>
			<v:textBlock v:margins="rect(4,4,4,4)" v:tabSpace="42.5197"/>
			<v:textRect cx="64.2134" cy="586.826" width="128.43" height="16.8983"/>
			<rect x="0" y="578.377" width="128.427" height="16.8983" class="st1"/>
			<text x="48.19" y="597.63" class="st3" v:langID="16393"><v:paragraph v:horizAlign="1"/><v:tabList/>W</text>		</g>
		<g id="shape140-141" v:mID="140" v:groupContext="shape" transform="translate(488.509,-234.015)">
			<title>Sheet.140</title>
			<desc>T</desc>
			<v:textBlock v:margins="rect(4,4,4,4)" v:tabSpace="42.5197"/>
			<v:textRect cx="64.2134" cy="586.826" width="128.43" height="16.8983"/>
			<rect x="0" y="578.377" width="128.427" height="16.8983" class="st1"/>
			<text x="55.44" y="597.63" class="st3" v:langID="16393"><v:paragraph v:horizAlign="1"/><v:tabList/>T</text>		</g>
		<g id="shape141-144" v:mID="141" v:groupContext="shape" transform="translate(377.432,-234.015)">
			<title>Sheet.141</title>
			<desc>T</desc>
			<v:textBlock v:margins="rect(4,4,4,4)" v:tabSpace="42.5197"/>
			<v:textRect cx="64.2134" cy="586.826" width="128.43" height="16.8983"/>
			<rect x="0" y="578.377" width="128.427" height="16.8983" class="st1"/>
			<text x="55.44" y="597.63" class="st3" v:langID="16393"><v:paragraph v:horizAlign="1"/><v:tabList/>T</text>		</g>
		<g id="shape142-147" v:mID="142" v:groupContext="shape" transform="translate(221.756,-349.767)">
			<title>Sheet.142</title>
			<desc>T</desc>
			<v:textBlock v:margins="rect(4,4,4,4)" v:tabSpace="42.5197"/>
			<v:textRect cx="64.2134" cy="586.826" width="128.43" height="16.8983"/>
			<rect x="0" y="578.377" width="128.427" height="16.8983" class="st1"/>
			<text x="55.44" y="597.63" class="st3" v:langID="16393"><v:paragraph v:horizAlign="1"/><v:tabList/>T</text>		</g>
		<g id="shape143-150" v:mID="143" v:groupContext="shape" transform="translate(1056.51,213.283) rotate(90.4639)">
			<title>Sheet.143</title>
			<path d="M0 595.28 L145.87 595.28" class="st10"/>
		</g>
		<g id="shape145-153" v:mID="145" v:groupContext="shape" transform="translate(1130.61,204.585) rotate(89.6267)">
			<title>Sheet.145</title>
			<path d="M0 595.28 L181.3 595.28" class="st10"/>
		</g>
		<g id="shape146-156" v:mID="146" v:groupContext="shape" transform="translate(840.207,191.741) rotate(89.3323)">
			<title>Sheet.146</title>
			<path d="M20.7 595.28 L21.06 595.28 L159.17 595.28" class="st5"/>
		</g>
	</g>
</svg>
