<?xml version="1.0" encoding="UTF-8" standalone="no"?>
<!DOCTYPE svg PUBLIC "-//W3C//DTD SVG 1.1//EN" "http://www.w3.org/Graphics/SVG/1.1/DTD/svg11.dtd">
<!-- Generated by Microsoft Visio, SVG Export Sep27JE02-08-explanation.svg Page-1 -->
<svg xmlns="http://www.w3.org/2000/svg" xmlns:xlink="http://www.w3.org/1999/xlink" xmlns:ev="http://www.w3.org/2001/xml-events"
		xmlns:v="http://schemas.microsoft.com/visio/2003/SVGExtensions/" width="11.2076in" height="7.15237in"
		viewBox="0 0 806.947 514.97" xml:space="preserve" color-interpolation-filters="sRGB" class="st11">
	<v:documentProperties v:langID="1033" v:metric="true" v:viewMarkup="false">
		<v:userDefs>
			<v:ud v:nameU="msvSubprocessMaster" v:prompt="" v:val="VT4(Rectangle)"/>
			<v:ud v:nameU="msvNoAutoConnect" v:val="VT0(1):26"/>
		</v:userDefs>
	</v:documentProperties>

	<style type="text/css">
	<![CDATA[
		.st1 {fill:none;stroke:none;stroke-linecap:round;stroke-linejoin:round;stroke-width:4.5}
		.st2 {fill:#bdedff;font-family:Arial Rounded MT Bold;font-size:7.91666em}
		.st3 {fill:none;stroke:#000000;stroke-linecap:round;stroke-linejoin:round;stroke-width:4.5}
		.st4 {stroke:#000000;stroke-linecap:round;stroke-linejoin:round;stroke-width:4.5}
		.st5 {marker-end:url(#mrkr1-17);stroke:#000000;stroke-linecap:round;stroke-linejoin:round;stroke-width:4.5}
		.st6 {fill:#000000;fill-opacity:1;stroke:#000000;stroke-opacity:1;stroke-width:0.64102564102564}
		.st7 {marker-end:url(#mrkr13-73);stroke:#000000;stroke-linecap:round;stroke-linejoin:round;stroke-width:4.5}
		.st8 {fill:none;stroke:none;stroke-width:1.5}
		.st9 {fill:#000000;font-family:Calibri;font-size:4.99999em;font-weight:bold}
		.st10 {fill:#000000;font-family:Calibri;font-size:4.00001em;font-weight:bold}
		.st11 {fill:none;fill-rule:evenodd;font-size:12px;overflow:visible;stroke-linecap:square;stroke-miterlimit:3}
	]]>
	</style>

	<defs id="Markers">
		<g id="lend1">
			<path d="M 1 -1 L 0 0 L 1 1 " style="stroke-linecap:round;stroke-linejoin:round;fill:none"/>
		</g>
		<marker id="mrkr1-17" class="st6" v:arrowType="1" v:arrowSize="2" orient="auto" markerUnits="strokeWidth"
				overflow="visible">
			<use xlink:href="#lend1" transform="scale(-1.56,-1.56) "/>
		</marker>
		<g id="lend13">
			<path d="M 3 1 L 0 0 L 3 -1 L 3 1 " style="stroke:none"/>
		</g>
		<marker id="mrkr13-73" class="st6" v:arrowType="13" v:arrowSize="2" v:setback="4.68" refX="-4.68" orient="auto"
				markerUnits="strokeWidth" overflow="visible">
			<use xlink:href="#lend13" transform="scale(-1.56,-1.56) "/>
		</marker>
	</defs>
	<g v:mID="0" v:index="1" v:groupContext="foregroundPage">
		<v:userDefs>
			<v:ud v:nameU="msvThemeOrder" v:val="VT0(0):26"/>
		</v:userDefs>
		<title>Page-1</title>
		<v:pageProperties v:drawingScale="0.0393701" v:pageScale="0.0393701" v:drawingUnits="24" v:shadowOffsetX="8.50394"
				v:shadowOffsetY="-8.50394"/>
		<v:layer v:name="Connector" v:index="0"/>
		<g id="shape1-1" v:mID="1" v:groupContext="shape" transform="translate(20.25,-250.786)">
			<title>Sheet.1</title>
			<desc>ExamSIDE.com</desc>
			<v:textBlock v:margins="rect(4,4,4,4)" v:tabSpace="42.5197"/>
			<v:textRect cx="359.938" cy="471.124" width="719.88" height="87.6924"/>
			<rect x="0" y="427.278" width="719.877" height="87.6924" class="st1"/>
			<text x="6.05" y="499.62" class="st2" v:langID="16393"><v:paragraph v:horizAlign="1"/><v:tabList/>ExamSIDE.com</text>		</g>
		<g id="shape2-4" v:mID="2" v:groupContext="shape" transform="translate(236.817,-380.148)">
			<title>Circle</title>
			<v:userDefs>
				<v:ud v:nameU="visVersion" v:val="VT0(15):26"/>
			</v:userDefs>
			<path d="M0 458.28 A56.6929 56.6929 0 0 1 113.39 458.28 A56.6929 56.6929 0 1 1 0 458.28 Z" class="st3"/>
		</g>
		<g id="shape3-6" v:mID="3" v:groupContext="shape" transform="translate(561.224,450.891) rotate(143.293)">
			<title>Sheet.3</title>
			<path d="M0 514.97 L197.49 514.97" class="st4"/>
		</g>
		<g id="shape4-9" v:mID="4" v:groupContext="shape" transform="translate(865.173,78.1293) rotate(90)">
			<title>Sheet.4</title>
			<path d="M0 514.97 L389.76 514.97" class="st4"/>
		</g>
		<g id="shape5-12" v:mID="5" v:groupContext="shape" transform="translate(-164.768,305.184) rotate(-90)">
			<title>Sheet.5</title>
			<path d="M0 514.97 L70.87 514.97" class="st5"/>
		</g>
		<g id="shape6-18" v:mID="6" v:groupContext="shape" transform="translate(147.242,671.052) rotate(180)">
			<title>Sheet.6</title>
			<path d="M0 514.97 L99.21 514.97" class="st4"/>
		</g>
		<g id="shape7-21" v:mID="7" v:groupContext="shape" transform="translate(497.344,407.698) rotate(119.249)">
			<title>Sheet.7</title>
			<path d="M0 514.97 L48.73 514.97" class="st4"/>
		</g>
		<g id="shape8-24" v:mID="8" v:groupContext="shape" transform="translate(522.601,408.01) rotate(119.249)">
			<title>Sheet.8</title>
			<path d="M0 514.97 L48.73 514.97" class="st4"/>
		</g>
		<g id="shape9-27" v:mID="9" v:groupContext="shape" transform="translate(547.858,406.054) rotate(119.249)">
			<title>Sheet.9</title>
			<path d="M0 514.97 L48.73 514.97" class="st4"/>
		</g>
		<g id="shape10-30" v:mID="10" v:groupContext="shape" transform="translate(573.114,407.5) rotate(119.249)">
			<title>Sheet.10</title>
			<path d="M0 514.97 L48.73 514.97" class="st4"/>
		</g>
		<g id="shape11-33" v:mID="11" v:groupContext="shape" transform="translate(597.237,407.812) rotate(119.249)">
			<title>Sheet.11</title>
			<path d="M0 514.97 L48.73 514.97" class="st4"/>
		</g>
		<g id="shape12-36" v:mID="12" v:groupContext="shape" transform="translate(391.022,-249.754)">
			<title>Circle.12</title>
			<v:userDefs>
				<v:ud v:nameU="visVersion" v:val="VT0(15):26"/>
			</v:userDefs>
			<path d="M0 499.95 A15.0236 15.0236 0 0 1 30.05 499.95 A15.0236 15.0236 0 1 1 0 499.95 Z" class="st3"/>
		</g>
		<g id="shape13-38" v:mID="13" v:groupContext="shape" transform="translate(391.022,-174.636)">
			<title>Circle.13</title>
			<v:userDefs>
				<v:ud v:nameU="visVersion" v:val="VT0(15):26"/>
			</v:userDefs>
			<path d="M0 499.95 A15.0236 15.0236 0 0 1 30.05 499.95 A15.0236 15.0236 0 1 1 0 499.95 Z" class="st3"/>
		</g>
		<g id="shape14-40" v:mID="14" v:groupContext="shape" transform="translate(921.016,265.216) rotate(90)">
			<title>Sheet.14</title>
			<path d="M0 514.97 L45.07 514.97" class="st4"/>
		</g>
		<g id="shape15-43" v:mID="15" v:groupContext="shape" transform="translate(921.016,340.334) rotate(90)">
			<title>Sheet.15</title>
			<path d="M0 514.97 L113.39 514.97" class="st4"/>
		</g>
		<g id="shape16-46" v:mID="16" v:groupContext="shape" transform="translate(402.882,846.972) rotate(178.807)">
			<title>Sheet.16</title>
			<path d="M0 514.97 L40.83 514.97" class="st4"/>
		</g>
		<g id="shape17-49" v:mID="17" v:groupContext="shape" transform="translate(401.748,835.634) rotate(178.807)">
			<title>Sheet.17</title>
			<path d="M0 514.97 L40.83 514.97" class="st4"/>
		</g>
		<g id="shape18-52" v:mID="18" v:groupContext="shape" transform="translate(810.526,659.065) rotate(128.238)">
			<title>Sheet.18</title>
			<path d="M0 514.97 L90.22 514.97" class="st4"/>
		</g>
		<g id="shape19-55" v:mID="19" v:groupContext="shape" transform="translate(797.187,659.491) rotate(128.925)">
			<title>Sheet.19</title>
			<path d="M0 514.97 L71.97 514.97" class="st4"/>
		</g>
		<g id="shape20-58" v:mID="20" v:groupContext="shape" transform="translate(617.51,-230.337)">
			<title>Circle.20</title>
			<v:userDefs>
				<v:ud v:nameU="visVersion" v:val="VT0(15):26"/>
			</v:userDefs>
			<path d="M0 480.53 A34.4409 34.4409 0 1 1 68.88 480.53 A34.4409 34.4409 0 1 1 -0 480.53 Z" class="st3"/>
		</g>
		<g id="shape21-60" v:mID="21" v:groupContext="shape" transform="translate(1166.92,170.681) rotate(90)">
			<title>Sheet.21</title>
			<path d="M0 514.97 L45.07 514.97" class="st4"/>
		</g>
		<g id="shape23-63" v:mID="23" v:groupContext="shape" transform="translate(636.927,-344.29)">
			<title>Circle.23</title>
			<v:userDefs>
				<v:ud v:nameU="visVersion" v:val="VT0(15):26"/>
			</v:userDefs>
			<path d="M0 499.95 A15.0236 15.0236 0 0 1 30.05 499.95 A15.0236 15.0236 0 1 1 0 499.95 Z" class="st3"/>
		</g>
		<g id="shape24-65" v:mID="24" v:groupContext="shape" transform="translate(617.51,765.163) rotate(180)">
			<title>Sheet.24</title>
			<path d="M0 514.97 L58.68 514.97" class="st4"/>
		</g>
		<g id="shape25-68" v:mID="25" v:groupContext="shape" transform="translate(43.8624,269.468) rotate(-90)">
			<title>Sheet.25</title>
			<path d="M0 514.97 L171.7 514.97" class="st7"/>
		</g>
		<g id="shape27-74" v:mID="27" v:groupContext="shape" transform="translate(626.49,-252.133) rotate(0.733447)">
			<title>Sheet.27</title>
			<path d="M0 514.97 L63.78 514.97" class="st4"/>
		</g>
		<g id="shape28-77" v:mID="28" v:groupContext="shape" transform="translate(1167.79,263.216) rotate(90)">
			<title>Sheet.28</title>
			<path d="M0 514.97 L141.1 514.97" class="st7"/>
		</g>
		<g id="shape29-82" v:mID="29" v:groupContext="shape" transform="translate(1191.28,274.549) rotate(90)">
			<title>Sheet.29</title>
			<path d="M0 514.97 L65.79 514.97" class="st4"/>
		</g>
		<g id="shape30-85" v:mID="30" v:groupContext="shape" transform="translate(1142.56,274.549) rotate(90)">
			<title>Sheet.30</title>
			<path d="M0 514.97 L65.79 514.97" class="st4"/>
		</g>
		<g id="shape31-88" v:mID="31" v:groupContext="shape" transform="translate(1224.04,226.948) rotate(90)">
			<title>Sheet.31</title>
			<path d="M0 514.97 L21.46 514.97" class="st7"/>
		</g>
		<g id="shape32-93" v:mID="32" v:groupContext="shape" transform="translate(269.281,-440.945)">
			<title>Sheet.32</title>
			<desc>.</desc>
			<v:textBlock v:margins="rect(4,4,4,4)" v:tabSpace="42.5197"/>
			<v:textRect cx="24.2289" cy="504.901" width="48.46" height="20.1389"/>
			<rect x="0" y="494.831" width="48.4578" height="20.1389" class="st8"/>
			<text x="16.22" y="522.9" class="st9" v:langID="16393"><v:paragraph v:horizAlign="1"/><v:tabList/>.</text>		</g>
		<g id="shape34-96" v:mID="34" v:groupContext="shape" transform="translate(293.659,-259.663)">
			<title>Sheet.34</title>
			<desc>T</desc>
			<v:textBlock v:margins="rect(4,4,4,4)" v:tabSpace="42.5197"/>
			<v:textRect cx="24.2289" cy="504.901" width="48.46" height="20.1389"/>
			<rect x="0" y="494.831" width="48.4578" height="20.1389" class="st8"/>
			<text x="12.35" y="519.3" class="st10" v:langID="16393"><v:paragraph v:horizAlign="1"/><v:tabList/>T</text>		</g>
		<g id="shape35-99" v:mID="35" v:groupContext="shape" transform="translate(349.352,-36.7307)">
			<title>Sheet.35</title>
			<desc>mg</desc>
			<v:textBlock v:margins="rect(4,4,4,4)" v:tabSpace="42.5197"/>
			<v:textRect cx="56.6929" cy="504.901" width="113.39" height="20.1389"/>
			<rect x="0" y="494.831" width="113.386" height="20.1389" class="st8"/>
			<text x="25.79" y="519.3" class="st10" v:langID="16393"><v:paragraph v:horizAlign="1"/><v:tabList/>mg</text>		</g>
		<g id="shape36-102" v:mID="36" v:groupContext="shape" transform="translate(595.258,-55.2848)">
			<title>Sheet.36</title>
			<desc>mg</desc>
			<v:textBlock v:margins="rect(4,4,4,4)" v:tabSpace="42.5197"/>
			<v:textRect cx="56.6929" cy="504.901" width="113.39" height="20.1389"/>
			<rect x="0" y="494.831" width="113.386" height="20.1389" class="st8"/>
			<text x="25.79" y="519.3" class="st10" v:langID="16393"><v:paragraph v:horizAlign="1"/><v:tabList/>mg</text>		</g>
		<g id="shape37-105" v:mID="37" v:groupContext="shape" transform="translate(674.061,-260.378)">
			<title>Sheet.37</title>
			<desc>a</desc>
			<v:textBlock v:margins="rect(4,4,4,4)" v:tabSpace="42.5197"/>
			<v:textRect cx="56.6929" cy="504.901" width="113.39" height="20.1389"/>
			<rect x="0" y="494.831" width="113.386" height="20.1389" class="st8"/>
			<text x="44.85" y="519.3" class="st10" v:langID="16393"><v:paragraph v:horizAlign="1"/><v:tabList/>a</text>		</g>
		<g id="shape38-108" v:mID="38" v:groupContext="shape" transform="translate(502.14,-458.101)">
			<title>Sheet.38</title>
			<desc>T</desc>
			<v:textBlock v:margins="rect(4,4,4,4)" v:tabSpace="42.5197"/>
			<v:textRect cx="56.6929" cy="504.901" width="113.39" height="20.1389"/>
			<rect x="0" y="494.831" width="113.386" height="20.1389" class="st8"/>
			<text x="44.81" y="519.3" class="st10" v:langID="16393"><v:paragraph v:horizAlign="1"/><v:tabList/>T</text>		</g>
	</g>
</svg>
