<?xml version="1.0" encoding="UTF-8" standalone="no"?>
<!DOCTYPE svg PUBLIC "-//W3C//DTD SVG 1.1//EN" "http://www.w3.org/Graphics/SVG/1.1/DTD/svg11.dtd">
<!-- Generated by Microsoft Visio, SVG Export Oct01JE10-14-ii.svg Page-1 -->
<svg xmlns="http://www.w3.org/2000/svg" xmlns:xlink="http://www.w3.org/1999/xlink" xmlns:ev="http://www.w3.org/2001/xml-events"
		xmlns:v="http://schemas.microsoft.com/visio/2003/SVGExtensions/" width="11.6929in" height="8.26772in"
		viewBox="0 0 841.89 595.276" xml:space="preserve" color-interpolation-filters="sRGB" class="st13">
	<v:documentProperties v:langID="1033" v:metric="true" v:viewMarkup="false">
		<v:userDefs>
			<v:ud v:nameU="msvSubprocessMaster" v:prompt="" v:val="VT4(Rectangle)"/>
			<v:ud v:nameU="msvNoAutoConnect" v:val="VT0(1):26"/>
		</v:userDefs>
	</v:documentProperties>

	<style type="text/css">
	<![CDATA[
		.st1 {fill:none;stroke:none;stroke-linecap:round;stroke-linejoin:round;stroke-width:0.75}
		.st2 {fill:#bdedff;font-family:Arial Rounded MT Bold;font-size:6.66666em}
		.st3 {fill:none;stroke:#000000;stroke-linecap:round;stroke-linejoin:round;stroke-width:3}
		.st4 {marker-end:url(#mrkr13-11);stroke:#000000;stroke-linecap:round;stroke-linejoin:round;stroke-width:3}
		.st5 {fill:#000000;fill-opacity:1;stroke:#000000;stroke-opacity:1;stroke-width:0.54347826086957}
		.st6 {marker-start:url(#mrkr13-17);stroke:#000000;stroke-linecap:round;stroke-linejoin:round;stroke-width:3}
		.st7 {marker-end:url(#mrkr10-36);marker-start:url(#mrkr10-34);stroke:#000000;stroke-linecap:round;stroke-linejoin:round;stroke-width:3}
		.st8 {stroke:#000000;stroke-linecap:round;stroke-linejoin:round;stroke-width:3}
		.st9 {fill:none;stroke:none;stroke-width:0.25}
		.st10 {fill:#000000;font-family:Calibri;font-size:3em;font-style:italic}
		.st11 {baseline-shift:32.4951%;font-size:0.649902em}
		.st12 {baseline-shift:-32.4951%;font-size:0.649902em}
		.st13 {fill:none;fill-rule:evenodd;font-size:12px;overflow:visible;stroke-linecap:square;stroke-miterlimit:3}
	]]>
	</style>

	<defs id="Markers">
		<g id="lend13">
			<path d="M 3 1 L 0 0 L 3 -1 L 3 1 " style="stroke:none"/>
		</g>
		<marker id="mrkr13-11" class="st5" v:arrowType="13" v:arrowSize="2" v:setback="5.52" refX="-5.52" orient="auto"
				markerUnits="strokeWidth" overflow="visible">
			<use xlink:href="#lend13" transform="scale(-1.84,-1.84) "/>
		</marker>
		<marker id="mrkr13-17" class="st5" v:arrowType="13" v:arrowSize="2" v:setback="5.4" refX="5.4" orient="auto"
				markerUnits="strokeWidth" overflow="visible">
			<use xlink:href="#lend13" transform="scale(1.84) "/>
		</marker>
		<g id="lend10">
			<path
					d="M 0 0.75 C -0.414214 0.75 -0.75 0.414214 -0.75 0 -0.75 -0.414214 -0.414214 -0.75 0 -0.75 0.414214 -0.75 0.75 -0.414214 0.75 0 0.75 0.414214 0.414214 0.75 0 0.75 Z "
					style="stroke:none"/>
		</g>
		<marker id="mrkr10-34" class="st5" v:arrowType="10" v:arrowSize="2" v:setback="1.26" refX="1.26" orient="auto"
				markerUnits="strokeWidth" overflow="visible">
			<use xlink:href="#lend10" transform="scale(1.84) "/>
		</marker>
		<marker id="mrkr10-36" class="st5" v:arrowType="10" v:arrowSize="2" v:setback="1.38" refX="-1.38" orient="auto"
				markerUnits="strokeWidth" overflow="visible">
			<use xlink:href="#lend10" transform="scale(-1.84,-1.84) "/>
		</marker>
	</defs>
	<g v:mID="0" v:index="1" v:groupContext="foregroundPage">
		<v:userDefs>
			<v:ud v:nameU="msvThemeOrder" v:val="VT0(0):26"/>
		</v:userDefs>
		<title>Page-1</title>
		<v:pageProperties v:drawingScale="0.0393701" v:pageScale="0.0393701" v:drawingUnits="24" v:shadowOffsetX="8.50394"
				v:shadowOffsetY="-8.50394"/>
		<v:layer v:name="Connector" v:index="0"/>
		<g id="shape1-1" v:mID="1" v:groupContext="shape" transform="translate(18,-264.563)">
			<title>Sheet.1</title>
			<desc>ExamSIDE.com</desc>
			<v:textBlock v:margins="rect(4,4,4,4)" v:tabSpace="42.5197"/>
			<v:textRect cx="333.231" cy="551.429" width="666.47" height="87.6924"/>
			<rect x="0" y="507.583" width="666.462" height="87.6924" class="st1"/>
			<text x="35.22" y="575.43" class="st2" v:langID="16393"><v:paragraph v:horizAlign="1"/><v:tabList/>ExamSIDE.com</text>		</g>
		<g id="shape2-4" v:mID="2" v:groupContext="shape" transform="translate(170.157,-146.991)">
			<title>Circle</title>
			<v:userDefs>
				<v:ud v:nameU="visVersion" v:val="VT0(15):26"/>
			</v:userDefs>
			<path d="M0 563.61 A31.6698 31.6698 0 1 1 63.34 563.61 A31.6698 31.6698 0 1 1 -0 563.61 Z" class="st3"/>
		</g>
		<g id="shape3-6" v:mID="3" v:groupContext="shape" transform="translate(-393.395,408.64) rotate(-89.2324)">
			<title>Sheet.3</title>
			<path d="M0 595.28 L91.71 595.28" class="st4"/>
		</g>
		<g id="shape4-12" v:mID="4" v:groupContext="shape" transform="translate(-393.449,521.008) rotate(-90)">
			<title>Sheet.4</title>
			<path d="M16.2 595.28 L16.56 595.28 L104.39 595.28" class="st6"/>
		</g>
		<g id="shape5-18" v:mID="5" v:groupContext="shape" transform="translate(201.827,-178.661)">
			<title>Sheet.5</title>
			<path d="M0 595.28 L85.49 595.28" class="st4"/>
		</g>
		<g id="shape6-23" v:mID="6" v:groupContext="shape" transform="translate(99.7795,-178.661)">
			<title>Sheet.6</title>
			<path d="M16.2 595.28 L16.56 595.28 L102.05 595.28" class="st6"/>
		</g>
		<g id="shape8-28" v:mID="8" v:groupContext="shape" transform="translate(203.244,-180.85)">
			<title>Sheet.8</title>
			<path d="M267.53 591.93 L267.36 591.61 L134.65 340.16 L1.93 591.61" class="st7"/>
		</g>
		<g id="shape9-37" v:mID="9" v:groupContext="shape" transform="translate(331.998,754.583) rotate(180)">
			<title>Sheet.9</title>
			<path d="M0 595.28 L133.57 595.28" class="st8"/>
		</g>
		<g id="shape10-40" v:mID="10" v:groupContext="shape" transform="translate(466.78,755.717) rotate(180)">
			<title>Sheet.10</title>
			<path d="M0 595.28 L133.57 595.28" class="st8"/>
		</g>
		<g id="shape15-43" v:mID="15" v:groupContext="shape" transform="translate(334.605,-369.599) rotate(2.35923)">
			<title>Sheet.15</title>
			<path d="M0 580.93 C1.77 596.8 49.74 603.09 55.65 580.93" class="st8"/>
		</g>
		<g id="shape20-46" v:mID="20" v:groupContext="shape" transform="translate(440.582,-148.614)">
			<title>Circle.20</title>
			<v:userDefs>
				<v:ud v:nameU="visVersion" v:val="VT0(15):26"/>
			</v:userDefs>
			<path d="M0 563.61 A31.6698 31.6698 0 1 1 63.34 563.61 A31.6698 31.6698 0 1 1 -0 563.61 Z" class="st3"/>
		</g>
		<g id="shape21-48" v:mID="21" v:groupContext="shape" transform="translate(790.256,576.635) rotate(117.743)">
			<title>Sheet.21</title>
			<path d="M16.2 595.28 L16.56 595.28 L132.3 595.28" class="st6"/>
		</g>
		<g id="shape22-53" v:mID="22" v:groupContext="shape" transform="translate(-339.079,-96.5107) rotate(-64.5485)">
			<title>Sheet.22</title>
			<path d="M0 595.28 L35.16 595.28" class="st8"/>
		</g>
		<g id="shape23-56" v:mID="23" v:groupContext="shape" transform="translate(-308.858,-96.5107) rotate(-64.5485)">
			<title>Sheet.23</title>
			<path d="M0 595.28 L35.16 595.28" class="st8"/>
		</g>
		<g id="shape24-59" v:mID="24" v:groupContext="shape" transform="translate(-293.748,-96.5107) rotate(-64.5485)">
			<title>Sheet.24</title>
			<path d="M0 595.28 L35.16 595.28" class="st8"/>
		</g>
		<g id="shape25-62" v:mID="25" v:groupContext="shape" transform="translate(-278.638,-96.5107) rotate(-64.5485)">
			<title>Sheet.25</title>
			<path d="M0 595.28 L35.16 595.28" class="st8"/>
		</g>
		<g id="shape26-65" v:mID="26" v:groupContext="shape" transform="translate(-263.528,-96.5107) rotate(-64.5485)">
			<title>Sheet.26</title>
			<path d="M0 595.28 L35.16 595.28" class="st8"/>
		</g>
		<g id="shape27-68" v:mID="27" v:groupContext="shape" transform="translate(-248.418,-96.5107) rotate(-64.5485)">
			<title>Sheet.27</title>
			<path d="M0 595.28 L35.16 595.28" class="st8"/>
		</g>
		<g id="shape28-71" v:mID="28" v:groupContext="shape" transform="translate(-233.308,-96.5107) rotate(-64.5485)">
			<title>Sheet.28</title>
			<path d="M0 595.28 L35.16 595.28" class="st8"/>
		</g>
		<g id="shape29-74" v:mID="29" v:groupContext="shape" transform="translate(-218.198,-96.5107) rotate(-64.5485)">
			<title>Sheet.29</title>
			<path d="M0 595.28 L35.16 595.28" class="st8"/>
		</g>
		<g id="shape30-77" v:mID="30" v:groupContext="shape" transform="translate(-323.969,-96.5107) rotate(-64.5485)">
			<title>Sheet.30</title>
			<path d="M0 595.28 L35.16 595.28" class="st8"/>
		</g>
		<g id="shape31-80" v:mID="31" v:groupContext="shape" transform="translate(466.78,754.583) rotate(180)">
			<title>Sheet.31</title>
			<path d="M0 595.28 L133.57 595.28" class="st8"/>
		</g>
		<g id="shape32-83" v:mID="32" v:groupContext="shape" transform="translate(-204.297,-96.5107) rotate(-64.5485)">
			<title>Sheet.32</title>
			<path d="M0 595.28 L35.16 595.28" class="st8"/>
		</g>
		<g id="shape33-86" v:mID="33" v:groupContext="shape" transform="translate(-174.077,-96.5107) rotate(-64.5485)">
			<title>Sheet.33</title>
			<path d="M0 595.28 L35.16 595.28" class="st8"/>
		</g>
		<g id="shape34-89" v:mID="34" v:groupContext="shape" transform="translate(-158.967,-96.5107) rotate(-64.5485)">
			<title>Sheet.34</title>
			<path d="M0 595.28 L35.16 595.28" class="st8"/>
		</g>
		<g id="shape35-92" v:mID="35" v:groupContext="shape" transform="translate(-143.857,-96.5107) rotate(-64.5485)">
			<title>Sheet.35</title>
			<path d="M0 595.28 L35.16 595.28" class="st8"/>
		</g>
		<g id="shape36-95" v:mID="36" v:groupContext="shape" transform="translate(-128.747,-96.5107) rotate(-64.5485)">
			<title>Sheet.36</title>
			<path d="M0 595.28 L35.16 595.28" class="st8"/>
		</g>
		<g id="shape37-98" v:mID="37" v:groupContext="shape" transform="translate(-113.637,-96.5107) rotate(-64.5485)">
			<title>Sheet.37</title>
			<path d="M0 595.28 L35.16 595.28" class="st8"/>
		</g>
		<g id="shape38-101" v:mID="38" v:groupContext="shape" transform="translate(-98.5266,-96.5107) rotate(-64.5485)">
			<title>Sheet.38</title>
			<path d="M0 595.28 L35.16 595.28" class="st8"/>
		</g>
		<g id="shape39-104" v:mID="39" v:groupContext="shape" transform="translate(-83.4165,-96.5107) rotate(-64.5485)">
			<title>Sheet.39</title>
			<path d="M0 595.28 L35.16 595.28" class="st8"/>
		</g>
		<g id="shape40-107" v:mID="40" v:groupContext="shape" transform="translate(-189.187,-96.5107) rotate(-64.5485)">
			<title>Sheet.40</title>
			<path d="M0 595.28 L35.16 595.28" class="st8"/>
		</g>
		<g id="shape41-110" v:mID="41" v:groupContext="shape" transform="translate(176.96,-307.48)">
			<title>Sheet.41</title>
			<desc>T</desc>
			<v:textBlock v:margins="rect(4,4,4,4)" v:tabSpace="42.5197"/>
			<v:textRect cx="76" cy="585.276" width="152.01" height="20"/>
			<rect x="0" y="575.276" width="152" height="20" class="st9"/>
			<text x="67.23" y="596.08" class="st10" v:langID="16393"><v:paragraph v:horizAlign="1"/><v:tabList/>T</text>		</g>
		<g id="shape42-113" v:mID="42" v:groupContext="shape" transform="translate(261.89,-334.331)">
			<title>Sheet.42</title>
			<desc>30o</desc>
			<v:textBlock v:margins="rect(4,4,4,4)" v:tabSpace="42.5197"/>
			<v:textRect cx="76" cy="585.276" width="152.01" height="20"/>
			<rect x="0" y="575.276" width="152" height="20" class="st9"/>
			<text x="51.75" y="596.08" class="st10" v:langID="16393"><v:paragraph v:horizAlign="1"/><v:tabList/>30<tspan
						dy="-0.234em" class="st11" v:baseFontSize="36">o</tspan></text>		</g>
		<g id="shape43-117" v:mID="43" v:groupContext="shape" transform="translate(230.677,-146.991)">
			<title>Sheet.43</title>
			<desc>T sin 15o</desc>
			<v:textBlock v:margins="rect(4,4,4,4)" v:tabSpace="42.5197"/>
			<v:textRect cx="76" cy="585.276" width="152.01" height="20"/>
			<rect x="0" y="575.276" width="152" height="20" class="st9"/>
			<text x="14.45" y="596.08" class="st10" v:langID="16393"><v:paragraph v:horizAlign="1"/><v:tabList/>T sin 15<tspan
						dy="-0.234em" class="st11" v:baseFontSize="36">o</tspan></text>		</g>
		<g id="shape44-121" v:mID="44" v:groupContext="shape" transform="translate(118.425,-47.8268)">
			<title>Sheet.44</title>
			<desc>mg</desc>
			<v:textBlock v:margins="rect(4,4,4,4)" v:tabSpace="42.5197"/>
			<v:textRect cx="76" cy="585.276" width="152.01" height="20"/>
			<rect x="0" y="575.276" width="152" height="20" class="st9"/>
			<text x="52.51" y="596.08" class="st10" v:langID="16393"><v:paragraph v:horizAlign="1"/><v:tabList/>mg</text>		</g>
		<g id="shape45-124" v:mID="45" v:groupContext="shape" transform="translate(9.66821,-168.661)">
			<title>Sheet.45</title>
			<desc>Fe</desc>
			<v:textBlock v:margins="rect(4,4,4,4)" v:tabSpace="42.5197"/>
			<v:textRect cx="76" cy="585.276" width="152.01" height="20"/>
			<rect x="0" y="575.276" width="152" height="20" class="st9"/>
			<text x="62.14" y="596.08" class="st10" v:langID="16393"><v:paragraph v:horizAlign="1"/><v:tabList/>F<tspan
						dy="-0.284em" class="st12" v:baseFontSize="36">e</tspan></text>		</g>
		<g id="shape46-128" v:mID="46" v:groupContext="shape" transform="translate(50.3937,-255.685)">
			<title>Sheet.46</title>
			<desc>T cos 15o</desc>
			<v:textBlock v:margins="rect(4,4,4,4)" v:tabSpace="42.5197"/>
			<v:textRect cx="76" cy="585.276" width="152.01" height="20"/>
			<rect x="0" y="575.276" width="152" height="20" class="st9"/>
			<text x="11.11" y="596.08" class="st10" v:langID="16393"><v:paragraph v:horizAlign="1"/><v:tabList/>T cos 15<tspan
						dy="-0.234em" class="st11" v:baseFontSize="36">o</tspan></text>		</g>
		<g id="shape48-132" v:mID="48" v:groupContext="shape" transform="translate(-70.7241,-96.5107) rotate(-64.5485)">
			<title>Sheet.48</title>
			<path d="M0 595.28 L35.16 595.28" class="st8"/>
		</g>
		<g id="shape49-135" v:mID="49" v:groupContext="shape" transform="translate(-393.342,373.674) rotate(-88.9151)">
			<title>Sheet.49</title>
			<path d="M0 595.28 L103.21 595.28" class="st4"/>
		</g>
		<g id="shape50-140" v:mID="50" v:groupContext="shape" transform="translate(101.417,-311.811)">
			<title>Sheet.50</title>
			<desc>FB</desc>
			<v:textBlock v:margins="rect(4,4,4,4)" v:tabSpace="42.5197"/>
			<v:textRect cx="76" cy="585.276" width="152.01" height="20"/>
			<rect x="0" y="575.276" width="152" height="20" class="st9"/>
			<text x="61.37" y="596.08" class="st10" v:langID="16393"><v:paragraph v:horizAlign="1"/><v:tabList/>F<tspan
						dy="-0.284em" class="st12" v:baseFontSize="36">B</tspan></text>		</g>
		<g id="shape51-144" v:mID="51" v:groupContext="shape" transform="translate(339.368,754.583) rotate(180)">
			<title>Sheet.51</title>
			<path d="M0 595.28 L133.57 595.28" class="st8"/>
		</g>
		<g id="shape52-147" v:mID="52" v:groupContext="shape" transform="translate(474.15,755.717) rotate(180)">
			<title>Sheet.52</title>
			<path d="M0 595.28 L133.57 595.28" class="st8"/>
		</g>
		<g id="shape53-150" v:mID="53" v:groupContext="shape" transform="translate(-331.709,-96.5107) rotate(-64.5485)">
			<title>Sheet.53</title>
			<path d="M0 595.28 L35.16 595.28" class="st8"/>
		</g>
		<g id="shape54-153" v:mID="54" v:groupContext="shape" transform="translate(-301.488,-96.5107) rotate(-64.5485)">
			<title>Sheet.54</title>
			<path d="M0 595.28 L35.16 595.28" class="st8"/>
		</g>
		<g id="shape55-156" v:mID="55" v:groupContext="shape" transform="translate(-286.378,-96.5107) rotate(-64.5485)">
			<title>Sheet.55</title>
			<path d="M0 595.28 L35.16 595.28" class="st8"/>
		</g>
		<g id="shape56-159" v:mID="56" v:groupContext="shape" transform="translate(-271.268,-96.5107) rotate(-64.5485)">
			<title>Sheet.56</title>
			<path d="M0 595.28 L35.16 595.28" class="st8"/>
		</g>
		<g id="shape57-162" v:mID="57" v:groupContext="shape" transform="translate(-256.158,-96.5107) rotate(-64.5485)">
			<title>Sheet.57</title>
			<path d="M0 595.28 L35.16 595.28" class="st8"/>
		</g>
		<g id="shape58-165" v:mID="58" v:groupContext="shape" transform="translate(-241.048,-96.5107) rotate(-64.5485)">
			<title>Sheet.58</title>
			<path d="M0 595.28 L35.16 595.28" class="st8"/>
		</g>
		<g id="shape59-168" v:mID="59" v:groupContext="shape" transform="translate(-225.938,-96.5107) rotate(-64.5485)">
			<title>Sheet.59</title>
			<path d="M0 595.28 L35.16 595.28" class="st8"/>
		</g>
		<g id="shape60-171" v:mID="60" v:groupContext="shape" transform="translate(-210.828,-96.5107) rotate(-64.5485)">
			<title>Sheet.60</title>
			<path d="M0 595.28 L35.16 595.28" class="st8"/>
		</g>
		<g id="shape61-174" v:mID="61" v:groupContext="shape" transform="translate(-316.598,-96.5107) rotate(-64.5485)">
			<title>Sheet.61</title>
			<path d="M0 595.28 L35.16 595.28" class="st8"/>
		</g>
		<g id="shape62-177" v:mID="62" v:groupContext="shape" transform="translate(474.15,754.583) rotate(180)">
			<title>Sheet.62</title>
			<path d="M0 595.28 L133.57 595.28" class="st8"/>
		</g>
		<g id="shape63-180" v:mID="63" v:groupContext="shape" transform="translate(-196.927,-96.5107) rotate(-64.5485)">
			<title>Sheet.63</title>
			<path d="M0 595.28 L35.16 595.28" class="st8"/>
		</g>
		<g id="shape64-183" v:mID="64" v:groupContext="shape" transform="translate(-166.707,-96.5107) rotate(-64.5485)">
			<title>Sheet.64</title>
			<path d="M0 595.28 L35.16 595.28" class="st8"/>
		</g>
		<g id="shape65-186" v:mID="65" v:groupContext="shape" transform="translate(-151.597,-96.5107) rotate(-64.5485)">
			<title>Sheet.65</title>
			<path d="M0 595.28 L35.16 595.28" class="st8"/>
		</g>
		<g id="shape66-189" v:mID="66" v:groupContext="shape" transform="translate(-136.487,-96.5107) rotate(-64.5485)">
			<title>Sheet.66</title>
			<path d="M0 595.28 L35.16 595.28" class="st8"/>
		</g>
		<g id="shape67-192" v:mID="67" v:groupContext="shape" transform="translate(-121.377,-96.5107) rotate(-64.5485)">
			<title>Sheet.67</title>
			<path d="M0 595.28 L35.16 595.28" class="st8"/>
		</g>
		<g id="shape68-195" v:mID="68" v:groupContext="shape" transform="translate(-106.267,-96.5107) rotate(-64.5485)">
			<title>Sheet.68</title>
			<path d="M0 595.28 L35.16 595.28" class="st8"/>
		</g>
		<g id="shape69-198" v:mID="69" v:groupContext="shape" transform="translate(-91.1565,-96.5107) rotate(-64.5485)">
			<title>Sheet.69</title>
			<path d="M0 595.28 L35.16 595.28" class="st8"/>
		</g>
		<g id="shape70-201" v:mID="70" v:groupContext="shape" transform="translate(-76.0464,-96.5107) rotate(-64.5485)">
			<title>Sheet.70</title>
			<path d="M0 595.28 L35.16 595.28" class="st8"/>
		</g>
		<g id="shape71-204" v:mID="71" v:groupContext="shape" transform="translate(-181.817,-96.5107) rotate(-64.5485)">
			<title>Sheet.71</title>
			<path d="M0 595.28 L35.16 595.28" class="st8"/>
		</g>
		<g id="shape72-207" v:mID="72" v:groupContext="shape" transform="translate(-63.354,-96.5107) rotate(-64.5485)">
			<title>Sheet.72</title>
			<path d="M0 595.28 L35.16 595.28" class="st8"/>
		</g>
	</g>
</svg>
