<?xml version="1.0" encoding="UTF-8" standalone="no"?>
<!DOCTYPE svg PUBLIC "-//W3C//DTD SVG 1.1//EN" "http://www.w3.org/Graphics/SVG/1.1/DTD/svg11.dtd">
<!-- Generated by Microsoft Visio, SVG Export Oct07JE12-46.svg Page-1 -->
<svg xmlns="http://www.w3.org/2000/svg" xmlns:xlink="http://www.w3.org/1999/xlink" xmlns:ev="http://www.w3.org/2001/xml-events"
		xmlns:v="http://schemas.microsoft.com/visio/2003/SVGExtensions/" width="9.79808in" height="4.3294in"
		viewBox="0 0 705.462 311.717" xml:space="preserve" color-interpolation-filters="sRGB" class="st10">
	<v:documentProperties v:langID="1033" v:metric="true" v:viewMarkup="false">
		<v:userDefs>
			<v:ud v:nameU="msvSubprocessMaster" v:prompt="" v:val="VT4(Rectangle)"/>
			<v:ud v:nameU="msvNoAutoConnect" v:val="VT0(1):26"/>
		</v:userDefs>
	</v:documentProperties>

	<style type="text/css">
	<![CDATA[
		.st1 {fill:none;stroke:none;stroke-linecap:round;stroke-linejoin:round;stroke-width:3}
		.st2 {fill:#bdedff;font-family:Arial Rounded MT Bold;font-size:7.08334em}
		.st3 {stroke:#000000;stroke-linecap:round;stroke-linejoin:round;stroke-width:3}
		.st4 {marker-start:url(#mrkr10-12);stroke:#000000;stroke-linecap:round;stroke-linejoin:round;stroke-width:3}
		.st5 {fill:#000000;fill-opacity:1;stroke:#000000;stroke-opacity:1;stroke-width:0.54347826086957}
		.st6 {stroke:#000000;stroke-linecap:butt;stroke-width:3.20147}
		.st7 {fill:none;stroke:none;stroke-width:0.25}
		.st8 {fill:#000000;font-family:Calibri;font-size:3em;font-style:italic;font-weight:bold}
		.st9 {baseline-shift:-32.4951%;font-size:0.649902em}
		.st10 {fill:none;fill-rule:evenodd;font-size:12px;overflow:visible;stroke-linecap:square;stroke-miterlimit:3}
	]]>
	</style>

	<defs id="Markers">
		<g id="lend10">
			<path
					d="M 0 0.75 C -0.414214 0.75 -0.75 0.414214 -0.75 0 -0.75 -0.414214 -0.414214 -0.75 0 -0.75 0.414214 -0.75 0.75 -0.414214 0.75 0 0.75 0.414214 0.414214 0.75 0 0.75 Z "
					style="stroke:none"/>
		</g>
		<marker id="mrkr10-12" class="st5" v:arrowType="10" v:arrowSize="2" v:setback="1.26" refX="1.26" orient="auto"
				markerUnits="strokeWidth" overflow="visible">
			<use xlink:href="#lend10" transform="scale(1.84) "/>
		</marker>
	</defs>
	<g v:mID="0" v:index="1" v:groupContext="foregroundPage">
		<v:userDefs>
			<v:ud v:nameU="msvThemeOrder" v:val="VT0(0):26"/>
			<v:ud v:nameU="InductorCount" v:prompt="" v:val="VT0(3):26"/>
		</v:userDefs>
		<title>Page-1</title>
		<v:pageProperties v:drawingScale="0.0393701" v:pageScale="0.0393701" v:drawingUnits="24" v:shadowOffsetX="8.50394"
				v:shadowOffsetY="-8.50394"/>
		<v:layer v:name="Connector" v:index="0"/>
		<v:layer v:name="Electrical" v:index="1"/>
		<g id="shape1-1" v:mID="1" v:groupContext="shape" transform="translate(19.5,-92.1199)">
			<title>Sheet.1</title>
			<desc>ExamSIDE.com</desc>
			<v:textBlock v:margins="rect(4,4,4,4)" v:tabSpace="42.5197"/>
			<v:textRect cx="333.231" cy="267.87" width="666.47" height="87.6924"/>
			<rect x="0" y="224.024" width="666.462" height="87.6924" class="st1"/>
			<text x="16.6" y="293.37" class="st2" v:langID="16393"><v:paragraph v:horizAlign="1"/><v:tabList/>ExamSIDE.com</text>		</g>
		<g id="shape3-4" v:mID="3" v:groupContext="shape" transform="translate(290.492,-154.482)">
			<title>Sheet.3</title>
			<path d="M0 311.72 L79.37 311.72" class="st3"/>
		</g>
		<g id="shape4-7" v:mID="4" v:groupContext="shape" transform="translate(345.484,-69.4428)">
			<title>Sheet.4</title>
			<path d="M3.78 311.72 L4.14 311.72 L212.6 311.72" class="st4"/>
		</g>
		<g id="shape5-13" v:mID="5" v:groupContext="shape" transform="translate(317.138,553.99) rotate(180)">
			<title>Sheet.5</title>
			<path d="M3.78 311.72 L4.14 311.72 L212.6 311.72" class="st4"/>
		</g>
		<g id="shape6-18" v:mID="6" v:groupContext="shape" transform="translate(416.256,157.234) rotate(90)">
			<title>Sheet.6</title>
			<path d="M0 311.72 L85.04 311.72" class="st3"/>
		</g>
		<g id="shape7-21" v:mID="7" v:groupContext="shape" transform="translate(58.7206,154.988) rotate(-89.5872)">
			<title>Sheet.7</title>
			<path d="M0 311.72 L78.68 311.72" class="st3"/>
		</g>
		<g id="shape8-24" v:mID="8" v:groupContext="shape" transform="translate(-21.2245,157.234) rotate(-90)">
			<title>Sheet.8</title>
			<path d="M0 311.72 L78.68 311.72" class="st3"/>
		</g>
		<g id="shape9-27" v:mID="9" v:groupContext="shape" v:layerMember="1" transform="translate(139.195,141.715) rotate(-90)">
			<title>Half inductor</title>
			<v:custProps>
				<v:cp v:nameU="Label" v:lbl="Label" v:prompt="" v:type="0" v:format="@" v:sortKey="" v:invis="false" v:ask="false"
						v:langID="1033" v:cal="0" v:val="VT4()"/>
			</v:custProps>
			<v:userDefs>
				<v:ud v:nameU="visDescription"
						v:val="VT4(Place over top/bottom half of one side of a transformer to make a center tapped transformer.)"/>
				<v:ud v:nameU="visVersion" v:val="VT0(15):26"/>
				<v:ud v:nameU="Label" v:prompt="" v:val="VT4()"/>
				<v:ud v:nameU="SolSH" v:prompt="" v:val="VT4({2EE3C7D2-E26E-4B72-9E9C-5170DDBF261A})"/>
				<v:ud v:nameU="Label" v:prompt="" v:val="VT4(L1)"/>
			</v:userDefs>
			<path d="M0.25 311.72 L60.59 311.72 C65.72 311.72 78.88 307.5 79.97 294.34 C81.16 279.98 66.49 268.14 60.57 265.07 C48.28
						 258.72 27.24 259.71 27.23 272 C27.21 284.91 51.31 285.64 63.52 276.52 C65.38 275.14 80.65 264.57 79.97 249.9
						 C77.25 231.03 60.59 231.68 60.59 231.68 L0 231.68" class="st6"/>
		</g>
		<g id="shape10-30" v:mID="10" v:groupContext="shape" v:layerMember="1" transform="translate(-21.5006,140.893) rotate(-90)">
			<title>Half inductor.10</title>
			<v:custProps>
				<v:cp v:nameU="Label" v:lbl="Label" v:prompt="" v:type="0" v:format="@" v:sortKey="" v:invis="false" v:ask="false"
						v:langID="1033" v:cal="0" v:val="VT4()"/>
			</v:custProps>
			<v:userDefs>
				<v:ud v:nameU="visDescription"
						v:val="VT4(Place over top/bottom half of one side of a transformer to make a center tapped transformer.)"/>
				<v:ud v:nameU="visVersion" v:val="VT0(15):26"/>
				<v:ud v:nameU="Label" v:prompt="" v:val="VT4()"/>
				<v:ud v:nameU="SolSH" v:prompt="" v:val="VT4({2EE3C7D2-E26E-4B72-9E9C-5170DDBF261A})"/>
				<v:ud v:nameU="Label" v:prompt="" v:val="VT4(L2)"/>
			</v:userDefs>
			<path d="M0.25 311.72 L60.59 311.72 C65.72 311.72 78.88 307.5 79.97 294.34 C81.16 279.98 66.49 268.14 60.57 265.07 C48.28
						 258.72 27.24 259.71 27.23 272 C27.21 284.91 51.31 285.64 63.52 276.52 C65.38 275.14 80.65 264.57 79.97 249.9
						 C77.25 231.03 60.59 231.68 60.59 231.68 L0 231.68" class="st6"/>
		</g>
		<g id="shape11-33" v:mID="11" v:groupContext="shape" transform="translate(-101.417,156.543) rotate(-90)">
			<title>Sheet.11</title>
			<path d="M0 311.72 L78.68 311.72" class="st3"/>
		</g>
		<g id="shape12-36" v:mID="12" v:groupContext="shape" transform="translate(138.403,154.297) rotate(-89.5872)">
			<title>Sheet.12</title>
			<path d="M0 311.72 L78.68 311.72" class="st3"/>
		</g>
		<g id="shape13-39" v:mID="13" v:groupContext="shape" transform="translate(212.723,468.12) rotate(179.555)">
			<title>Sheet.13</title>
			<path d="M0 311.72 L105.76 311.72" class="st3"/>
		</g>
		<g id="shape14-42" v:mID="14" v:groupContext="shape" transform="translate(246.366,242.274) rotate(-90)">
			<title>Sheet.14</title>
			<path d="M0 311.72 L85.04 311.72" class="st3"/>
		</g>
		<g id="shape15-45" v:mID="15" v:groupContext="shape" transform="translate(453.421,-155.61) rotate(0.607961)">
			<title>Sheet.15</title>
			<path d="M0 311.72 L107.98 311.72" class="st3"/>
		</g>
		<g id="shape16-48" v:mID="16" v:groupContext="shape" transform="translate(255.311,-29.6003)">
			<title>Sheet.16</title>
			<desc>440V</desc>
			<v:textBlock v:margins="rect(4,4,4,4)" v:tabSpace="42.5197"/>
			<v:textRect cx="76" cy="301.717" width="152" height="20"/>
			<rect x="0" y="291.717" width="152" height="20" class="st7"/>
			<text x="37.99" y="312.52" class="st8" v:langID="16393"><v:paragraph v:horizAlign="1"/><v:tabList/>440V</text>		</g>
		<g id="shape17-51" v:mID="17" v:groupContext="shape" transform="translate(174.198,-262.117)">
			<title>Sheet.17</title>
			<desc>B1</desc>
			<v:textBlock v:margins="rect(4,4,4,4)" v:tabSpace="42.5197"/>
			<v:textRect cx="76" cy="301.717" width="152" height="20"/>
			<rect x="0" y="291.717" width="152" height="20" class="st7"/>
			<text x="59.98" y="312.52" class="st8" v:langID="16393"><v:paragraph v:horizAlign="1"/><v:tabList/>B<tspan
						dy="-0.284em" class="st9" v:baseFontSize="36">1</tspan></text>		</g>
		<g id="shape18-55" v:mID="18" v:groupContext="shape" transform="translate(347.457,-259.849)">
			<title>Sheet.18</title>
			<desc>B2</desc>
			<v:textBlock v:margins="rect(4,4,4,4)" v:tabSpace="42.5197"/>
			<v:textRect cx="76" cy="301.717" width="152" height="20"/>
			<rect x="0" y="291.717" width="152" height="20" class="st7"/>
			<text x="59.98" y="312.52" class="st8" v:langID="16393"><v:paragraph v:horizAlign="1"/><v:tabList/>B<tspan
						dy="-0.284em" class="st9" v:baseFontSize="36">2</tspan></text>		</g>
		<g id="shape19-59" v:mID="19" v:groupContext="shape" transform="translate(174.198,-139.567)">
			<title>Sheet.19</title>
			<desc>R1</desc>
			<v:textBlock v:margins="rect(4,4,4,4)" v:tabSpace="42.5197"/>
			<v:textRect cx="76" cy="301.717" width="152" height="20"/>
			<rect x="0" y="291.717" width="152" height="20" class="st7"/>
			<text x="59.94" y="312.52" class="st8" v:langID="16393"><v:paragraph v:horizAlign="1"/><v:tabList/>R<tspan
						dy="-0.284em" class="st9" v:baseFontSize="36">1</tspan></text>		</g>
		<g id="shape20-63" v:mID="20" v:groupContext="shape" transform="translate(334.894,-140.191)">
			<title>Sheet.20</title>
			<desc>R2</desc>
			<v:textBlock v:margins="rect(4,4,4,4)" v:tabSpace="42.5197"/>
			<v:textRect cx="76" cy="301.717" width="152" height="20"/>
			<rect x="0" y="291.717" width="152" height="20" class="st7"/>
			<text x="59.94" y="312.52" class="st8" v:langID="16393"><v:paragraph v:horizAlign="1"/><v:tabList/>R<tspan
						dy="-0.284em" class="st9" v:baseFontSize="36">2</tspan></text>		</g>
	</g>
</svg>
