<?xml version="1.0" encoding="UTF-8" standalone="no"?>
<!DOCTYPE svg PUBLIC "-//W3C//DTD SVG 1.1//EN" "http://www.w3.org/Graphics/SVG/1.1/DTD/svg11.dtd">
<!-- Generated by Microsoft Visio, SVG Export Sep30JE14-31.svg Page-1 -->
<svg xmlns="http://www.w3.org/2000/svg" xmlns:xlink="http://www.w3.org/1999/xlink" xmlns:ev="http://www.w3.org/2001/xml-events"
		xmlns:v="http://schemas.microsoft.com/visio/2003/SVGExtensions/" width="9.79808in" height="5.66995in"
		viewBox="0 0 705.462 408.237" xml:space="preserve" color-interpolation-filters="sRGB" class="st12">
	<v:documentProperties v:langID="1033" v:metric="true" v:viewMarkup="false">
		<v:userDefs>
			<v:ud v:nameU="msvSubprocessMaster" v:prompt="" v:val="VT4(Rectangle)"/>
			<v:ud v:nameU="msvNoAutoConnect" v:val="VT0(1):26"/>
		</v:userDefs>
	</v:documentProperties>

	<style type="text/css">
	<![CDATA[
		.st1 {fill:none;stroke:none;stroke-linecap:round;stroke-linejoin:round;stroke-width:3}
		.st2 {fill:#bdedff;font-family:Arial Rounded MT Bold;font-size:6.66666em}
		.st3 {stroke:#000000;stroke-linecap:round;stroke-linejoin:round;stroke-width:3}
		.st4 {stroke:#000000;stroke-dasharray:3,6;stroke-linecap:round;stroke-linejoin:round;stroke-width:3}
		.st5 {marker-end:url(#mrkr13-54);stroke:#000000;stroke-linecap:round;stroke-linejoin:round;stroke-width:3}
		.st6 {fill:#000000;fill-opacity:1;stroke:#000000;stroke-opacity:1;stroke-width:0.54347826086957}
		.st7 {fill:none;stroke:none;stroke-width:0.25}
		.st8 {fill:#000000;font-family:Cambria Math;font-size:4.00001em}
		.st9 {fill:#000000;font-family:Calibri;font-size:4.00001em}
		.st10 {marker-end:url(#mrkr13-78);stroke:#000000;stroke-linecap:round;stroke-linejoin:round;stroke-width:3}
		.st11 {fill:#000000;font-family:Calibri;font-size:3em;font-weight:bold}
		.st12 {fill:none;fill-rule:evenodd;font-size:12px;overflow:visible;stroke-linecap:square;stroke-miterlimit:3}
	]]>
	</style>

	<defs id="Markers">
		<g id="lend13">
			<path d="M 3 1 L 0 0 L 3 -1 L 3 1 " style="stroke:none"/>
		</g>
		<marker id="mrkr13-54" class="st6" v:arrowType="13" v:arrowSize="2" v:setback="5.4" refX="-5.4" orient="auto"
				markerUnits="strokeWidth" overflow="visible">
			<use xlink:href="#lend13" transform="scale(-1.84,-1.84) "/>
		</marker>
		<marker id="mrkr13-78" class="st6" v:arrowType="13" v:arrowSize="2" v:setback="5.52" refX="-5.52" orient="auto"
				markerUnits="strokeWidth" overflow="visible">
			<use xlink:href="#lend13" transform="scale(-1.84,-1.84) "/>
		</marker>
	</defs>
	<g v:mID="0" v:index="1" v:groupContext="foregroundPage">
		<v:userDefs>
			<v:ud v:nameU="msvThemeOrder" v:val="VT0(0):26"/>
		</v:userDefs>
		<title>Page-1</title>
		<v:pageProperties v:drawingScale="0.0393701" v:pageScale="0.0393701" v:drawingUnits="24" v:shadowOffsetX="8.50394"
				v:shadowOffsetY="-8.50394"/>
		<v:layer v:name="Connector" v:index="0"/>
		<g id="shape1-1" v:mID="1" v:groupContext="shape" transform="translate(19.5,-147.024)">
			<title>Sheet.1</title>
			<desc>ExamSIDE.com</desc>
			<v:textBlock v:margins="rect(4,4,4,4)" v:tabSpace="42.5197"/>
			<v:textRect cx="333.231" cy="364.39" width="666.47" height="87.6924"/>
			<rect x="0" y="320.544" width="666.462" height="87.6924" class="st1"/>
			<text x="35.22" y="388.39" class="st2" v:langID="16393"><v:paragraph v:horizAlign="1"/><v:tabList/>ExamSIDE.com</text>		</g>
		<g id="shape3-4" v:mID="3" v:groupContext="shape" transform="translate(353.014,526.949) rotate(180)">
			<title>Sheet.3</title>
			<path d="M0 408.24 L123.31 408.24" class="st3"/>
		</g>
		<g id="shape6-7" v:mID="6" v:groupContext="shape" transform="translate(476.322,526.949) rotate(180)">
			<title>Sheet.6</title>
			<path d="M0 408.24 L123.31 408.24" class="st3"/>
		</g>
		<g id="shape8-10" v:mID="8" v:groupContext="shape" transform="translate(-57.8256,-169.954) rotate(-45)">
			<title>Sheet.8</title>
			<path d="M0 408.24 L35.12 408.24" class="st3"/>
		</g>
		<g id="shape9-13" v:mID="9" v:groupContext="shape" transform="translate(-33.5736,-169.954) rotate(-45)">
			<title>Sheet.9</title>
			<path d="M0 408.24 L35.12 408.24" class="st3"/>
		</g>
		<g id="shape10-16" v:mID="10" v:groupContext="shape" transform="translate(-8.90173,-169.954) rotate(-45)">
			<title>Sheet.10</title>
			<path d="M0 408.24 L35.12 408.24" class="st3"/>
		</g>
		<g id="shape11-19" v:mID="11" v:groupContext="shape" transform="translate(13.1455,-169.954) rotate(-45)">
			<title>Sheet.11</title>
			<path d="M0 408.24 L35.12 408.24" class="st3"/>
		</g>
		<g id="shape12-22" v:mID="12" v:groupContext="shape" transform="translate(38.5523,-169.954) rotate(-45)">
			<title>Sheet.12</title>
			<path d="M0 408.24 L35.12 408.24" class="st3"/>
		</g>
		<g id="shape13-25" v:mID="13" v:groupContext="shape" transform="translate(64.0641,-169.954) rotate(-45)">
			<title>Sheet.13</title>
			<path d="M0 408.24 L35.12 408.24" class="st3"/>
		</g>
		<g id="shape14-28" v:mID="14" v:groupContext="shape" transform="translate(484.083,526.949) rotate(180)">
			<title>Sheet.14</title>
			<path d="M0 408.24 L123.31 408.24" class="st3"/>
		</g>
		<g id="shape16-31" v:mID="16" v:groupContext="shape" transform="translate(90.1459,-169.954) rotate(-45)">
			<title>Sheet.16</title>
			<path d="M0 408.24 L35.12 408.24" class="st3"/>
		</g>
		<g id="shape17-34" v:mID="17" v:groupContext="shape" transform="translate(116.918,-169.954) rotate(-45)">
			<title>Sheet.17</title>
			<path d="M0 408.24 L35.12 408.24" class="st3"/>
		</g>
		<g id="shape18-37" v:mID="18" v:groupContext="shape" transform="translate(143.164,-169.954) rotate(-45)">
			<title>Sheet.18</title>
			<path d="M0 408.24 L35.12 408.24" class="st3"/>
		</g>
		<g id="shape19-40" v:mID="19" v:groupContext="shape" transform="translate(195.416,-169.954) rotate(-45)">
			<title>Sheet.19</title>
			<path d="M0 408.24 L35.12 408.24" class="st3"/>
		</g>
		<g id="shape20-43" v:mID="20" v:groupContext="shape" transform="translate(170.101,-169.954) rotate(-45)">
			<title>Sheet.20</title>
			<path d="M0 408.24 L35.12 408.24" class="st3"/>
		</g>
		<g id="shape21-46" v:mID="21" v:groupContext="shape" transform="translate(-55.5056,250.251) rotate(-90)">
			<title>Sheet.21</title>
			<path d="M0 408.24 L230.75 408.24" class="st4"/>
		</g>
		<g id="shape23-49" v:mID="23" v:groupContext="shape" transform="translate(4.0947,-91.0386) rotate(-63.4349)">
			<title>Sheet.23</title>
			<path d="M0 373.94 C-5.65 402.56 16.04 413.84 31.69 405.63 C38.17 402.24 43.62 395.5 41.5 387.28 L41.29 386.99"
					class="st5"/>
		</g>
		<g id="shape29-55" v:mID="29" v:groupContext="shape" transform="translate(225.172,-92.2162)">
			<title>Sheet.29</title>
			<path d="M255.12 408.24 L127.56 210.93 L0 408.24" class="st3"/>
		</g>
		<g id="shape32-58" v:mID="32" v:groupContext="shape" transform="translate(221.873,-62.7422) rotate(-0.419297)">
			<title>Sheet.32</title>
			<path d="M0 379.13 C2.22 380.87 4.29 382.2 6.48 383.49 C66.44 418.73 223.94 415.69 254.45 379.13" class="st3"/>
		</g>
		<g id="shape34-61" v:mID="34" v:groupContext="shape" transform="translate(224.138,-91.8514) rotate(-0.218806)">
			<title>Sheet.34</title>
			<path d="M0 408.24 C27.55 386.62 74.84 381.67 118.21 381.13 C176.49 380.41 227.69 387.65 254.6 408.24" class="st3"/>
		</g>
		<g id="shape35-64" v:mID="35" v:groupContext="shape" transform="translate(172.385,-180.87)">
			<title>Sheet.35</title>
			<desc>𝒍</desc>
			<v:textBlock v:margins="rect(4,4,4,4)" v:tabSpace="42.5197"/>
			<v:textRect cx="76" cy="398.237" width="152.01" height="20"/>
			<rect x="0" y="388.237" width="152" height="20" class="st7"/>
			<text x="67.12" y="413.04" class="st8" v:langID="1041"><v:paragraph v:horizAlign="1"/><v:tabList/>𝒍</text>		</g>
		<g id="shape38-67" v:mID="38" v:groupContext="shape" transform="translate(361.77,-180.87)">
			<title>Sheet.38</title>
			<desc>𝒍</desc>
			<v:textBlock v:margins="rect(4,4,4,4)" v:tabSpace="42.5197"/>
			<v:textRect cx="76" cy="398.237" width="152.01" height="20"/>
			<rect x="0" y="388.237" width="152" height="20" class="st7"/>
			<text x="67.12" y="413.04" class="st8" v:langID="1041"><v:paragraph v:horizAlign="1"/><v:tabList/>𝒍</text>		</g>
		<g id="shape39-70" v:mID="39" v:groupContext="shape" transform="translate(134.999,-62.7524)">
			<title>Sheet.39</title>
			<desc>m</desc>
			<v:textBlock v:margins="rect(4,4,4,4)" v:tabSpace="42.5197"/>
			<v:textRect cx="76" cy="398.237" width="152.01" height="20"/>
			<rect x="0" y="388.237" width="152" height="20" class="st7"/>
			<text x="56.83" y="412.64" class="st9" v:langID="16393"><v:paragraph v:horizAlign="1"/><v:tabList/>m</text>		</g>
		<g id="shape40-73" v:mID="40" v:groupContext="shape" transform="translate(887.997,315.087) rotate(90)">
			<title>Sheet.40</title>
			<path d="M0 408.24 L41.13 408.24" class="st10"/>
		</g>
		<g id="shape41-79" v:mID="41" v:groupContext="shape" transform="translate(441.676,-38.5791)">
			<title>Sheet.41</title>
			<desc>mg</desc>
			<v:textBlock v:margins="rect(4,4,4,4)" v:tabSpace="42.5197"/>
			<v:textRect cx="76" cy="398.237" width="152.01" height="20"/>
			<rect x="0" y="388.237" width="152" height="20" class="st7"/>
			<text x="45.53" y="412.64" class="st9" v:langID="16393"><v:paragraph v:horizAlign="1"/><v:tabList/>mg</text>		</g>
		<g id="shape42-82" v:mID="42" v:groupContext="shape" transform="translate(289.739,-232.779)">
			<title>Sheet.42</title>
			<desc>θ</desc>
			<v:textBlock v:margins="rect(4,4,4,4)" v:tabSpace="42.5197"/>
			<v:textRect cx="76" cy="398.237" width="152.01" height="20"/>
			<rect x="0" y="388.237" width="152" height="20" class="st7"/>
			<text x="66.19" y="409.04" class="st11" v:langID="1032"><v:paragraph v:horizAlign="1"/><v:tabList/>θ</text>		</g>
	</g>
</svg>
