<?xml version="1.0" encoding="UTF-8" standalone="no"?>
<!DOCTYPE svg PUBLIC "-//W3C//DTD SVG 1.1//EN" "http://www.w3.org/Graphics/SVG/1.1/DTD/svg11.dtd">
<!-- Generated by Microsoft Visio, SVG Export Oct06JE02-02-ii.svg Page-1 -->
<svg xmlns="http://www.w3.org/2000/svg" xmlns:xlink="http://www.w3.org/1999/xlink" xmlns:ev="http://www.w3.org/2001/xml-events"
		xmlns:v="http://schemas.microsoft.com/visio/2003/SVGExtensions/" width="9.81892in" height="4.47676in"
		viewBox="0 0 706.962 322.327" xml:space="preserve" color-interpolation-filters="sRGB" class="st9">
	<v:documentProperties v:langID="1033" v:metric="true" v:viewMarkup="false">
		<v:userDefs>
			<v:ud v:nameU="msvSubprocessMaster" v:prompt="" v:val="VT4(Rectangle)"/>
			<v:ud v:nameU="msvNoAutoConnect" v:val="VT0(1):26"/>
		</v:userDefs>
	</v:documentProperties>

	<style type="text/css">
	<![CDATA[
		.st1 {fill:none;stroke:none;stroke-linecap:round;stroke-linejoin:round;stroke-width:4.5}
		.st2 {fill:#bdedff;font-family:Arial Rounded MT Bold;font-size:6.66666em}
		.st3 {stroke:#000000;stroke-linecap:round;stroke-linejoin:round;stroke-width:4.5}
		.st4 {marker-end:url(#mrkr41-27);stroke:#000000;stroke-linecap:round;stroke-linejoin:round;stroke-width:4.5}
		.st5 {fill:#000000;fill-opacity:1;stroke:#000000;stroke-opacity:1;stroke-width:0.64102564102564}
		.st6 {marker-start:url(#mrkr41-33);stroke:#000000;stroke-linecap:round;stroke-linejoin:round;stroke-width:4.5}
		.st7 {fill:#000000;font-family:Calibri;font-size:4.00001em;font-style:italic;font-weight:bold}
		.st8 {fill:none;stroke:none;stroke-width:4.5}
		.st9 {fill:none;fill-rule:evenodd;font-size:12px;overflow:visible;stroke-linecap:square;stroke-miterlimit:3}
	]]>
	</style>

	<defs id="Markers">
		<g id="lend41">
			<path
					d="M 0.75 0.75 C 0.335786 0.75 0 0.414214 0 0 0 -0.414214 0.335786 -0.75 0.75 -0.75 1.16421 -0.75 1.5 -0.414214 1.5 0 1.5 0.414214 1.16421 0.75 0.75 0.75 Z "
					style="stroke-linecap:round;stroke-linejoin:round;fill:none"/>
		</g>
		<marker id="mrkr41-27" class="st5" v:arrowType="41" v:arrowSize="2" v:setback="2.34" refX="-2.34" orient="auto"
				markerUnits="strokeWidth" overflow="visible">
			<use xlink:href="#lend41" transform="scale(-1.56,-1.56) "/>
		</marker>
		<marker id="mrkr41-33" class="st5" v:arrowType="41" v:arrowSize="2" v:setback="2.26" refX="2.26" orient="auto"
				markerUnits="strokeWidth" overflow="visible">
			<use xlink:href="#lend41" transform="scale(1.56) "/>
		</marker>
	</defs>
	<g v:mID="0" v:index="1" v:groupContext="foregroundPage">
		<v:userDefs>
			<v:ud v:nameU="msvThemeOrder" v:val="VT0(0):26"/>
		</v:userDefs>
		<title>Page-1</title>
		<v:pageProperties v:drawingScale="0.0393701" v:pageScale="0.0393701" v:drawingUnits="24" v:shadowOffsetX="8.50394"
				v:shadowOffsetY="-8.50394"/>
		<v:layer v:name="Connector" v:index="0"/>
		<v:layer v:name="Electrical" v:index="1"/>
		<g id="shape1-1" v:mID="1" v:groupContext="shape" transform="translate(20.25,-94.0702)">
			<title>Sheet.1</title>
			<desc>ExamSIDE.com</desc>
			<v:textBlock v:margins="rect(4,4,4,4)" v:tabSpace="42.5197"/>
			<v:textRect cx="333.231" cy="278.481" width="666.47" height="87.6924"/>
			<rect x="0" y="234.635" width="666.462" height="87.6924" class="st1"/>
			<text x="35.22" y="302.48" class="st2" v:langID="16393"><v:paragraph v:horizAlign="1"/><v:tabList/>ExamSIDE.com</text>		</g>
		<g id="shape2-4" v:mID="2" v:groupContext="shape" transform="translate(388.754,-220.636)">
			<title>Sheet.2</title>
			<path d="M0 322.33 L100.69 322.33" class="st3"/>
		</g>
		<g id="group3-7" transform="translate(489.449,-204.221)" v:mID="3" v:groupContext="group" v:layerMember="1">
			<v:custProps>
				<v:cp v:nameU="Label" v:lbl="Label" v:type="0" v:format="@" v:sortKey="" v:invis="false" v:ask="false"
						v:langID="1033" v:val="VT4()"/>
				<v:cp v:nameU="Slider_Position" v:lbl="Slider position (0-1)" v:type="2" v:langID="1033" v:val="VT0(0.5):26"/>
			</v:custProps>
			<v:userDefs>
				<v:ud v:nameU="Form" v:val="VT0(1):5"/>
				<v:ud v:nameU="SubType" v:val="VT0(0):26"/>
				<v:ud v:nameU="visVersion" v:val="VT0(15):26"/>
				<v:ud v:nameU="visDescription" v:val="VT4(Represents a fixed or variable resistor.)"/>
			</v:userDefs>
			<title>Resistor</title>
			<g id="shape4-8" v:mID="4" v:groupContext="shape" v:layerMember="1">
				<title>Sheet.4</title>
				<v:userDefs>
					<v:ud v:nameU="SubType" v:val="VT0(0):26"/>
					<v:ud v:nameU="Form" v:val="VT0(1):5"/>
				</v:userDefs>
				<path d="M0 305.91 L6.84 289.5 L20.52 322.33 L34.2 289.5 L47.88 322.33 L61.56 289.5 L75.24 322.33 L82.07 305.91"
						class="st3"/>
			</g>
			<g id="shape5-11" v:mID="5" v:groupContext="shape" v:layerMember="1"
					transform="translate(-219.962,114.555) rotate(-45)">
				<title>Sheet.5</title>
				<v:userDefs>
					<v:ud v:nameU="SubType" v:val="VT0(0):26"/>
				</v:userDefs>
			</g>
		</g>
		<g id="shape6-13" v:mID="6" v:groupContext="shape" transform="translate(571.524,-220.636)">
			<title>Sheet.6</title>
			<path d="M0 322.33 L100.69 322.33" class="st3"/>
		</g>
		<g id="shape7-16" v:mID="7" v:groupContext="shape" transform="translate(711.081,101.691) rotate(90)">
			<title>Sheet.7</title>
			<path d="M0 322.33 L145 322.33" class="st3"/>
		</g>
		<g id="shape8-19" v:mID="8" v:groupContext="shape" transform="translate(994.545,101.691) rotate(90)">
			<title>Sheet.8</title>
			<path d="M0 322.33 L145 322.33" class="st3"/>
		</g>
		<g id="shape9-22" v:mID="9" v:groupContext="shape" transform="translate(388.754,-75.6371)">
			<title>Sheet.9</title>
			<path d="M0 322.33 L117.03 322.33" class="st4"/>
		</g>
		<g id="shape10-28" v:mID="10" v:groupContext="shape" transform="translate(544.659,-74.5428)">
			<title>Sheet.10</title>
			<path d="M10.17 322.33 L10.53 322.33 L127.56 322.33" class="st6"/>
		</g>
		<g id="shape11-34" v:mID="11" v:groupContext="shape" transform="translate(485.122,-40.3859)">
			<title>Sheet.11</title>
			<desc>V</desc>
			<v:textBlock v:margins="rect(4,4,4,4)" v:tabSpace="42.5197"/>
			<v:textRect cx="45.3642" cy="315.557" width="90.73" height="13.5399"/>
			<rect x="0" y="308.787" width="90.7283" height="13.5399" class="st1"/>
			<text x="31.17" y="329.96" class="st7" v:langID="16393"><v:paragraph v:horizAlign="1"/><v:tabList/>V</text>		</g>
		<g id="shape12-37" v:mID="12" v:groupContext="shape" transform="translate(487.967,-253.262)">
			<title>Sheet.12</title>
			<desc>R4</desc>
			<v:textBlock v:margins="rect(4,4,4,4)" v:tabSpace="42.5197"/>
			<v:textRect cx="45.3642" cy="315.557" width="90.73" height="13.5399"/>
			<rect x="0" y="308.787" width="90.7283" height="13.5399" class="st1"/>
			<text x="19.69" y="329.96" class="st7" v:langID="16393"><v:paragraph v:horizAlign="1"/><v:tabList/>R4</text>		</g>
		<g id="shape13-40" v:mID="13" v:groupContext="shape" transform="translate(48.5965,-220.28)">
			<title>Sheet.13</title>
			<path d="M0 322.33 L42.52 322.33" class="st3"/>
		</g>
		<g id="shape17-43" v:mID="17" v:groupContext="shape" transform="translate(289.541,-220.28)">
			<title>Sheet.17</title>
			<path d="M0 322.33 L42.52 322.33" class="st3"/>
		</g>
		<g id="shape18-46" v:mID="18" v:groupContext="shape" transform="translate(370.923,102.046) rotate(90)">
			<title>Sheet.18</title>
			<path d="M0 322.33 L145 322.33" class="st3"/>
		</g>
		<g id="shape19-49" v:mID="19" v:groupContext="shape" transform="translate(654.388,102.046) rotate(90)">
			<title>Sheet.19</title>
			<path d="M0 322.33 L145 322.33" class="st3"/>
		</g>
		<g id="shape20-52" v:mID="20" v:groupContext="shape" transform="translate(48.5965,-75.2815)">
			<title>Sheet.20</title>
			<path d="M0 322.33 L117.03 322.33" class="st4"/>
		</g>
		<g id="shape21-57" v:mID="21" v:groupContext="shape" transform="translate(204.502,-74.1872)">
			<title>Sheet.21</title>
			<path d="M10.17 322.33 L10.53 322.33 L127.56 322.33" class="st6"/>
		</g>
		<g id="shape22-62" v:mID="22" v:groupContext="shape" transform="translate(144.965,-40.0303)">
			<title>Sheet.22</title>
			<desc>V</desc>
			<v:textBlock v:margins="rect(4,4,4,4)" v:tabSpace="42.5197"/>
			<v:textRect cx="45.3642" cy="315.557" width="90.73" height="13.5399"/>
			<rect x="0" y="308.787" width="90.7283" height="13.5399" class="st1"/>
			<text x="31.17" y="329.96" class="st7" v:langID="16393"><v:paragraph v:horizAlign="1"/><v:tabList/>V</text>		</g>
		<g id="shape23-65" v:mID="23" v:groupContext="shape" transform="translate(139.156,-270.079)">
			<title>Sheet.23</title>
			<desc>R/2</desc>
			<v:textBlock v:margins="rect(4,4,4,4)" v:tabSpace="42.5197"/>
			<v:textRect cx="45.3642" cy="316.879" width="90.73" height="10.8963"/>
			<rect x="0" y="311.431" width="90.7283" height="10.8963" class="st1"/>
			<text x="9.27" y="331.28" class="st7" v:langID="16393"><v:paragraph v:horizAlign="1"/><v:tabList/>R/2</text>		</g>
		<g id="shape24-68" v:mID="24" v:groupContext="shape" transform="translate(-163.533,-96.5144) rotate(-52.1886)">
			<title>Sheet.24</title>
			<path d="M0 322.33 L41.61 322.33" class="st3"/>
		</g>
		<g id="shape25-71" v:mID="25" v:groupContext="shape" transform="translate(357.479,-80.4155) rotate(55.7283)">
			<title>Sheet.25</title>
			<path d="M0 322.33 L40.27 322.33" class="st3"/>
		</g>
		<g id="shape26-74" v:mID="26" v:groupContext="shape" transform="translate(116.628,-254.11)">
			<title>Sheet.26</title>
			<path d="M0 322.33 L21.54 322.33" class="st3"/>
		</g>
		<g id="shape27-77" v:mID="27" v:groupContext="shape" transform="translate(139.156,-242.248)">
			<title>Sheet.27</title>
			<path d="M0 310.46 L11.57 322.1 L24.95 308.64 L38.56 322.33 L52.62 308.18 L65.32 320.96 L78.03 308.18 L90.73 319.59"
					class="st3"/>
		</g>
		<g id="shape28-80" v:mID="28" v:groupContext="shape" transform="translate(34.8924,298.7) rotate(-127.811)">
			<title>Sheet.28</title>
			<path d="M0 322.33 L41.61 322.33" class="st3"/>
		</g>
		<g id="shape29-83" v:mID="29" v:groupContext="shape" transform="translate(527.406,318.613) rotate(132.442)">
			<title>Sheet.29</title>
			<path d="M0 322.33 L42 322.33" class="st3"/>
		</g>
		<g id="shape30-86" v:mID="30" v:groupContext="shape" transform="translate(264.03,390.543) rotate(180)">
			<title>Sheet.30</title>
			<path d="M0 322.33 L24.94 322.33" class="st3"/>
		</g>
		<g id="shape31-89" v:mID="31" v:groupContext="shape" transform="translate(16.5455,-164.281) rotate(-41.4426)">
			<title>Sheet.31</title>
			<path d="M0 322.33 L13.79 322.33" class="st3"/>
		</g>
		<g id="shape32-92" v:mID="32" v:groupContext="shape" transform="translate(113.793,-187.956)">
			<title>Sheet.32</title>
			<path d="M0 322.33 L21.54 322.33" class="st3"/>
		</g>
		<g id="shape33-95" v:mID="33" v:groupContext="shape" transform="translate(136.321,-176.093)">
			<title>Sheet.33</title>
			<path d="M0 310.46 L11.57 322.1 L24.95 308.64 L38.56 322.33 L52.62 308.18 L65.32 320.96 L78.03 308.18 L90.73 319.59"
					class="st3"/>
		</g>
		<g id="shape34-98" v:mID="34" v:groupContext="shape" transform="translate(261.195,456.698) rotate(180)">
			<title>Sheet.34</title>
			<path d="M0 322.33 L24.94 322.33" class="st3"/>
		</g>
		<g id="shape35-101" v:mID="35" v:groupContext="shape" transform="translate(13.7109,-98.1262) rotate(-41.4426)">
			<title>Sheet.35</title>
			<path d="M0 322.33 L13.79 322.33" class="st3"/>
		</g>
		<g id="shape36-104" v:mID="36" v:groupContext="shape" transform="translate(139.467,-211.94)">
			<title>Sheet.36</title>
			<desc>R/2</desc>
			<v:textBlock v:margins="rect(4,4,4,4)" v:tabSpace="42.5197"/>
			<v:textRect cx="45.3642" cy="316.879" width="90.73" height="10.8963"/>
			<rect x="0" y="311.431" width="90.7283" height="10.8963" class="st8"/>
			<text x="9.27" y="331.28" class="st7" v:langID="16393"><v:paragraph v:horizAlign="1"/><v:tabList/>R/2</text>		</g>
		<g id="shape37-107" v:mID="37" v:groupContext="shape" transform="translate(339.148,-159.085)">
			<title>Sheet.37</title>
			<path d="M0 322.33 L42.52 322.33" class="st3"/>
		</g>
		<g id="shape38-110" v:mID="38" v:groupContext="shape" transform="translate(339.148,-149.164)">
			<title>Sheet.38</title>
			<path d="M0 322.33 L42.52 322.33" class="st3"/>
		</g>
		<g id="shape39-113" v:mID="39" v:groupContext="shape" transform="translate(339.148,-139.243)">
			<title>Sheet.39</title>
			<path d="M0 322.33 L42.52 322.33" class="st3"/>
		</g>
	</g>
</svg>
