<?xml version="1.0" encoding="UTF-8" standalone="no"?>
<!DOCTYPE svg PUBLIC "-//W3C//DTD SVG 1.1//EN" "http://www.w3.org/Graphics/SVG/1.1/DTD/svg11.dtd">
<!-- Generated by Microsoft Visio, SVG Export Oct04JE05-17.svg Page-1 -->
<svg xmlns="http://www.w3.org/2000/svg" xmlns:xlink="http://www.w3.org/1999/xlink" xmlns:ev="http://www.w3.org/2001/xml-events"
		xmlns:v="http://schemas.microsoft.com/visio/2003/SVGExtensions/" width="10.4146in" height="5.52713in"
		viewBox="0 0 749.854 397.953" xml:space="preserve" color-interpolation-filters="sRGB" class="st10">
	<v:documentProperties v:langID="1033" v:metric="true" v:viewMarkup="false">
		<v:userDefs>
			<v:ud v:nameU="msvSubprocessMaster" v:prompt="" v:val="VT4(Rectangle)"/>
			<v:ud v:nameU="msvNoAutoConnect" v:val="VT0(1):26"/>
		</v:userDefs>
	</v:documentProperties>

	<style type="text/css">
	<![CDATA[
		.st1 {fill:none;stroke:none;stroke-linecap:round;stroke-linejoin:round;stroke-width:4.5}
		.st2 {fill:#bdedff;font-family:Arial Rounded MT Bold;font-size:7.08334em}
		.st3 {stroke:#000000;stroke-linecap:round;stroke-linejoin:round;stroke-width:4.5}
		.st4 {stroke:#000000;stroke-dasharray:4.5,9;stroke-linecap:round;stroke-linejoin:round;stroke-width:4.5}
		.st5 {marker-start:url(#mrkr13-21);stroke:#000000;stroke-linecap:round;stroke-linejoin:round;stroke-width:4.5}
		.st6 {fill:#000000;fill-opacity:1;stroke:#000000;stroke-opacity:1;stroke-width:0.64102564102564}
		.st7 {marker-end:url(#mrkr13-27);stroke:#000000;stroke-linecap:round;stroke-linejoin:round;stroke-width:4.5}
		.st8 {fill:none;stroke:#000000;stroke-linecap:round;stroke-linejoin:round;stroke-width:4.5}
		.st9 {fill:#000000;font-family:Calibri;font-size:3em;font-weight:bold}
		.st10 {fill:none;fill-rule:evenodd;font-size:12px;overflow:visible;stroke-linecap:square;stroke-miterlimit:3}
	]]>
	</style>

	<defs id="Markers">
		<g id="lend13">
			<path d="M 3 1 L 0 0 L 3 -1 L 3 1 " style="stroke:none"/>
		</g>
		<marker id="mrkr13-21" class="st6" v:arrowType="13" v:arrowSize="2" v:setback="4.6" refX="4.6" orient="auto"
				markerUnits="strokeWidth" overflow="visible">
			<use xlink:href="#lend13" transform="scale(1.56) "/>
		</marker>
		<marker id="mrkr13-27" class="st6" v:arrowType="13" v:arrowSize="2" v:setback="4.68" refX="-4.68" orient="auto"
				markerUnits="strokeWidth" overflow="visible">
			<use xlink:href="#lend13" transform="scale(-1.56,-1.56) "/>
		</marker>
	</defs>
	<g v:mID="0" v:index="1" v:groupContext="foregroundPage">
		<v:userDefs>
			<v:ud v:nameU="msvThemeOrder" v:val="VT0(0):26"/>
		</v:userDefs>
		<title>Page-1</title>
		<v:pageProperties v:drawingScale="0.0393701" v:pageScale="0.0393701" v:drawingUnits="24" v:shadowOffsetX="8.50394"
				v:shadowOffsetY="-8.50394"/>
		<v:layer v:name="Connector" v:index="0"/>
		<g id="shape1-1" v:mID="1" v:groupContext="shape" transform="translate(18.375,-144.435)">
			<title>Sheet.1</title>
			<desc>ExamSIDE.com</desc>
			<v:textBlock v:margins="rect(4,4,4,4)" v:tabSpace="42.5197"/>
			<v:textRect cx="333.231" cy="354.107" width="666.47" height="87.6924"/>
			<rect x="0" y="310.261" width="666.462" height="87.6924" class="st1"/>
			<text x="16.6" y="379.61" class="st2" v:langID="16393"><v:paragraph v:horizAlign="1"/><v:tabList/>ExamSIDE.com</text>		</g>
		<g id="shape4-4" v:mID="4" v:groupContext="shape" transform="translate(504.553,591.322) rotate(-178.836)">
			<title>Sheet.4</title>
			<path d="M0 397.95 L355.93 397.95" class="st3"/>
		</g>
		<g id="shape6-7" v:mID="6" v:groupContext="shape" transform="translate(600.792,480.323) rotate(165.17)">
			<title>Sheet.6</title>
			<path d="M0 397.95 L353.95 397.95" class="st3"/>
		</g>
		<g id="shape7-10" v:mID="7" v:groupContext="shape" transform="translate(554.726,186.222) rotate(90)">
			<title>Sheet.7</title>
			<path d="M0 397.95 L98.78 397.95" class="st4"/>
		</g>
		<g id="shape8-13" v:mID="8" v:groupContext="shape" transform="translate(910.587,193.451) rotate(90)">
			<title>Sheet.8</title>
			<path d="M0 397.95 L98.78 397.95" class="st4"/>
		</g>
		<g id="shape10-16" v:mID="10" v:groupContext="shape" transform="translate(160.746,-76.4827)">
			<title>Sheet.10</title>
			<path d="M20.7 397.95 L21.06 397.95 L160.63 397.95" class="st5"/>
		</g>
		<g id="shape11-22" v:mID="11" v:groupContext="shape" transform="translate(369.568,-76.4827)">
			<title>Sheet.11</title>
			<path d="M0 397.95 L123.51 397.95" class="st7"/>
		</g>
		<g id="shape12-28" v:mID="12" v:groupContext="shape" transform="translate(912.091,303.413) rotate(90)">
			<title>Sheet.12</title>
			<path d="M0 397.95 L37.23 397.95" class="st3"/>
		</g>
		<g id="shape13-31" v:mID="13" v:groupContext="shape" transform="translate(558.699,305.056) rotate(90)">
			<title>Sheet.13</title>
			<path d="M0 397.95 L33.95 397.95" class="st3"/>
		</g>
		<g id="shape14-34" v:mID="14" v:groupContext="shape" transform="translate(34.8566,-81.2127)">
			<title>Circle</title>
			<v:userDefs>
				<v:ud v:nameU="visVersion" v:val="VT0(15):26"/>
			</v:userDefs>
			<path d="M0 375.17 A22.7868 22.7868 0 0 1 45.57 375.17 A22.7868 22.7868 0 1 1 0 375.17 Z" class="st8"/>
		</g>
		<g id="shape16-36" v:mID="16" v:groupContext="shape" transform="translate(44.4128,-91.8304)">
			<title>Sheet.16</title>
			<desc>1</desc>
			<v:textBlock v:margins="rect(4,4,4,4)" v:tabSpace="42.5197"/>
			<v:textRect cx="86.1346" cy="386.62" width="172.27" height="22.667"/>
			<rect x="0" y="375.286" width="172.269" height="22.667" class="st1"/>
			<text x="4" y="397.42" class="st9" v:langID="16393"><v:paragraph/><v:tabList/>1</text>		</g>
		<g id="shape17-39" v:mID="17" v:groupContext="shape" transform="translate(571.667,-72)">
			<title>Circle.17</title>
			<v:userDefs>
				<v:ud v:nameU="visVersion" v:val="VT0(15):26"/>
			</v:userDefs>
			<path d="M0 375.17 A22.7868 22.7868 0 0 1 45.57 375.17 A22.7868 22.7868 0 1 1 0 375.17 Z" class="st8"/>
		</g>
		<g id="shape18-41" v:mID="18" v:groupContext="shape" transform="translate(579.604,-83.2947)">
			<title>Sheet.18</title>
			<desc>2</desc>
			<v:textBlock v:margins="rect(4,4,4,4)" v:tabSpace="42.5197"/>
			<v:textRect cx="76" cy="387.953" width="152" height="20"/>
			<rect x="0" y="377.953" width="152" height="20" class="st1"/>
			<text x="4" y="398.75" class="st9" v:langID="16393"><v:paragraph/><v:tabList/>2</text>		</g>
		<g id="shape19-44" v:mID="19" v:groupContext="shape" transform="translate(133.046,-347.02)">
			<title>Sheet.19</title>
			<desc>+q</desc>
			<v:textBlock v:margins="rect(4,4,4,4)" v:tabSpace="42.5197"/>
			<v:textRect cx="86.1346" cy="386.62" width="172.27" height="22.667"/>
			<rect x="0" y="375.286" width="172.269" height="22.667" class="st1"/>
			<text x="4" y="397.42" class="st9" v:langID="16393"><v:paragraph/><v:tabList/>+q</text>		</g>
		<g id="shape20-47" v:mID="20" v:groupContext="shape" transform="translate(498.074,-347.02)">
			<title>Sheet.20</title>
			<desc>-q</desc>
			<v:textBlock v:margins="rect(4,4,4,4)" v:tabSpace="42.5197"/>
			<v:textRect cx="86.1346" cy="386.62" width="172.27" height="22.667"/>
			<rect x="0" y="375.286" width="172.269" height="22.667" class="st1"/>
			<text x="4" y="397.42" class="st9" v:langID="16393"><v:paragraph/><v:tabList/>-q</text>		</g>
		<g id="shape21-50" v:mID="21" v:groupContext="shape" transform="translate(121.334,-193.169)">
			<title>Sheet.21</title>
			<desc>A</desc>
			<v:textBlock v:margins="rect(4,4,4,4)" v:tabSpace="42.5197"/>
			<v:textRect cx="86.1346" cy="386.62" width="172.27" height="22.667"/>
			<rect x="0" y="375.286" width="172.269" height="22.667" class="st1"/>
			<text x="4" y="397.42" class="st9" v:langID="16393"><v:paragraph/><v:tabList/>A</text>		</g>
		<g id="shape22-53" v:mID="22" v:groupContext="shape" transform="translate(517.21,-192.395)">
			<title>Sheet.22</title>
			<desc>B</desc>
			<v:textBlock v:margins="rect(4,4,4,4)" v:tabSpace="42.5197"/>
			<v:textRect cx="76" cy="387.953" width="152" height="20"/>
			<rect x="0" y="377.953" width="152" height="20" class="st1"/>
			<text x="4" y="398.75" class="st9" v:langID="16393"><v:paragraph/><v:tabList/>B</text>		</g>
		<g id="shape23-56" v:mID="23" v:groupContext="shape" transform="translate(124.765,-128.486)">
			<title>Sheet.23</title>
			<desc>R</desc>
			<v:textBlock v:margins="rect(4,4,4,4)" v:tabSpace="42.5197"/>
			<v:textRect cx="86.1346" cy="386.62" width="172.27" height="22.667"/>
			<rect x="0" y="375.286" width="172.269" height="22.667" class="st1"/>
			<text x="4" y="397.42" class="st9" v:langID="16393"><v:paragraph/><v:tabList/>R</text>		</g>
		<g id="shape24-59" v:mID="24" v:groupContext="shape" transform="translate(516.107,-133.891)">
			<title>Sheet.24</title>
			<desc>R</desc>
			<v:textBlock v:margins="rect(4,4,4,4)" v:tabSpace="42.5197"/>
			<v:textRect cx="76" cy="387.953" width="152" height="20"/>
			<rect x="0" y="377.953" width="152" height="20" class="st1"/>
			<text x="4" y="398.75" class="st9" v:langID="16393"><v:paragraph/><v:tabList/>R</text>		</g>
		<g id="shape25-62" v:mID="25" v:groupContext="shape" transform="translate(326.349,-64.6085)">
			<title>Sheet.25</title>
			<desc>d</desc>
			<v:textBlock v:margins="rect(4,4,4,4)" v:tabSpace="42.5197"/>
			<v:textRect cx="86.1346" cy="386.62" width="172.27" height="22.667"/>
			<rect x="0" y="375.286" width="172.269" height="22.667" class="st1"/>
			<text x="4" y="397.42" class="st9" v:langID="16393"><v:paragraph/><v:tabList/>d</text>		</g>
		<g id="shape29-65" v:mID="29" v:groupContext="shape" transform="translate(57.9944,-112.952)">
			<title>Circle.27</title>
			<v:userDefs>
				<v:ud v:nameU="visVersion" v:val="VT0(15):26"/>
			</v:userDefs>
			<path d="M0 299.17 A98.7788 98.7788 0 1 1 197.56 299.17 A98.7788 98.7788 0 0 1 0 299.17 Z" class="st8"/>
		</g>
		<g id="shape30-67" v:mID="30" v:groupContext="shape" transform="translate(394.931,573.599) rotate(-162.796)">
			<title>Sheet.30</title>
			<path d="M0 397.95 L351.29 397.95" class="st3"/>
		</g>
		<g id="shape31-70" v:mID="31" v:groupContext="shape" transform="translate(413.855,-105.724)">
			<title>Circle.31</title>
			<v:userDefs>
				<v:ud v:nameU="visVersion" v:val="VT0(15):26"/>
			</v:userDefs>
			<path d="M0 299.17 A98.7788 98.7788 0 1 1 197.56 299.17 A98.7788 98.7788 0 0 1 0 299.17 Z" class="st8"/>
		</g>
	</g>
</svg>
